<svg id="edit" width="16" height="16" viewBox="0 0 16 16" fill="none" xmlns="http://www.w3.org/2000/svg">
<path fill-rule="evenodd" clip-rule="evenodd" d="M15.139 0.994899C14.2677 0.123693 12.8553 0.123686 11.9841 0.994899L10.7349 2.24404L4.85588 8.12308C4.76058 8.21841 4.69298 8.33783 4.66029 8.46856L3.91667 11.4431C3.85331 11.6965 3.92756 11.9646 4.11226 12.1492C4.29696 12.3339 4.56503 12.4082 4.81844 12.3448L7.79289 11.6012C7.92369 11.5685 8.04304 11.5009 8.13837 11.4056L13.9747 5.56931L15.2666 4.2774C16.1378 3.4062 16.1378 1.99369 15.2666 1.12248L15.139 0.994899ZM13.0357 2.04654C13.3261 1.75614 13.7969 1.75614 14.0873 2.04654L14.2149 2.17412C14.5053 2.46453 14.5053 2.93537 14.2149 3.22577L13.459 3.98167L12.3024 2.77984L13.0357 2.04654ZM11.2506 3.83167L12.4072 5.0335L7.23242 10.2083L5.66009 10.6014L6.05316 9.0291L11.2506 3.83167ZM2.40722 4.93081C2.40722 4.52012 2.74016 4.18719 3.15084 4.18719H6.86894C7.27964 4.18719 7.61256 3.85426 7.61256 3.44356C7.61256 3.03288 7.27964 2.69994 6.86894 2.69994H3.15084C1.91878 2.69994 0.919983 3.69874 0.919983 4.93081V13.1106C0.919983 14.3427 1.91878 15.3415 3.15084 15.3415H11.3307C12.5628 15.3415 13.5615 14.3427 13.5615 13.1106V9.39251C13.5615 8.98188 13.2286 8.64889 12.8179 8.64889C12.4072 8.64889 12.0743 8.98188 12.0743 9.39251V13.1106C12.0743 13.5213 11.7414 13.8542 11.3307 13.8542H3.15084C2.74016 13.8542 2.40722 13.5213 2.40722 13.1106V4.93081Z" fill="#848484"/>
</svg>
