<svg width="85" height="74" viewBox="0 0 85 74" fill="none" xmlns="http://www.w3.org/2000/svg">
<path d="M2 29.9103V72M2 29.9103L31.5 50.0962M2 29.9103L14.9295 21L17 19.5M2 72H83M2 72L31.5 50.0962M83 72V29.9103M83 72L53 50.0962M83 29.9103L53 50.0962M83 29.9103L72.875 22.9327L68.5 20M53 50.0962L43.6992 42.8678C42.9903 42.317 42.0013 42.3059 41.2803 42.8407L31.5 50.0962M62.75 15.9551L44.7698 3.56421C43.4031 2.62239 41.5969 2.62239 40.2302 3.56421L23 15.4383L22 16" stroke="#C92F49" stroke-width="4"/>
<path d="M17 40V16H69V40" stroke="#C92F49" stroke-width="4"/>
</svg>
