<svg width="49" height="49" viewBox="0 0 49 49" fill="none" xmlns="http://www.w3.org/2000/svg">
<path d="M31.57 31.57C29.6947 33.4447 27.1516 34.4979 24.5 34.4979C21.8484 34.4979 19.3053 33.4447 17.43 31.57H31.57ZM17 19.5H17.025H17ZM32 19.5H32.025H32ZM47 24.5C47 27.4547 46.418 30.3806 45.2873 33.1104C44.1566 35.8402 42.4992 38.3206 40.4099 40.4099C38.3206 42.4992 35.8402 44.1566 33.1104 45.2873C30.3806 46.418 27.4547 47 24.5 47C21.5453 47 18.6194 46.418 15.8896 45.2873C13.1598 44.1566 10.6794 42.4992 8.5901 40.4099C6.50078 38.3206 4.84344 35.8402 3.71271 33.1104C2.58198 30.3806 2 27.4547 2 24.5C2 18.5326 4.37053 12.8097 8.5901 8.5901C12.8097 4.37053 18.5326 2 24.5 2C30.4674 2 36.1903 4.37053 40.4099 8.5901C44.6295 12.8097 47 18.5326 47 24.5Z" stroke="#C92F49" stroke-width="4" stroke-linecap="round" stroke-linejoin="round"/>
</svg>
