<svg width="28" height="26" viewBox="0 0 28 26" fill="none" xmlns="http://www.w3.org/2000/svg">
<path d="M24.9952 3.09355C24.3599 2.42984 23.6056 1.90333 22.7754 1.54411C21.9451 1.18489 21.0553 1 20.1566 1C19.258 1 18.3681 1.18489 17.5379 1.54411C16.7077 1.90333 15.9534 2.42984 15.3181 3.09355L13.9997 4.47036L12.6812 3.09355C11.398 1.75352 9.65749 1.00069 7.84269 1.00069C6.0279 1.00069 4.28743 1.75352 3.00418 3.09355C1.72092 4.43359 1 6.25107 1 8.14616C1 10.0413 1.72092 11.8587 3.00418 13.1988L4.32264 14.5756L13.9997 24.6808L23.6767 14.5756L24.9952 13.1988C25.6308 12.5354 26.1349 11.7477 26.4789 10.8807C26.8229 10.0138 27 9.08458 27 8.14616C27 7.20774 26.8229 6.27852 26.4789 5.41158C26.1349 4.54463 25.6308 3.75696 24.9952 3.09355Z" fill="#C92F49" stroke="#C92F49" stroke-width="2" stroke-linecap="round" stroke-linejoin="round"/>
</svg>
