<svg width="59" height="54" viewBox="0 0 59 54" fill="none" xmlns="http://www.w3.org/2000/svg">
<path d="M53.6048 5.59718C52.212 4.13974 50.5584 2.98359 48.7383 2.1948C46.9182 1.406 44.9674 1 42.9973 1C41.0271 1 39.0763 1.406 37.2562 2.1948C35.4362 2.98359 33.7825 4.13974 32.3898 5.59718L29.4993 8.62046L26.6088 5.59718C23.7955 2.65463 19.9799 1.00153 16.0013 1.00153C12.0227 1.00153 8.20706 2.65463 5.39377 5.59718C2.58049 8.53972 1 12.5307 1 16.6921C1 20.8534 2.58049 24.8444 5.39377 27.7869L8.28425 30.8102L29.4993 53L50.7143 30.8102L53.6048 27.7869C54.9982 26.3302 56.1035 24.6006 56.8577 22.6969C57.6118 20.7932 58 18.7527 58 16.6921C58 14.6314 57.6118 12.591 56.8577 10.6873C56.1035 8.78356 54.9982 7.05393 53.6048 5.59718Z" fill="#C92F49" stroke="#C92F49" stroke-width="2" stroke-linecap="round" stroke-linejoin="round"/>
</svg>
