<svg width="26" height="26" viewBox="0 0 26 26" fill="none" xmlns="http://www.w3.org/2000/svg">
<path d="M10.4046 0.0742188C4.65878 0.0742188 0 4.50904 0 9.97853C0 15.448 4.65878 19.8829 10.4046 19.8829C12.614 19.8829 14.6631 19.2268 16.3474 18.1093L24.2157 25.5982C24.2867 25.6658 24.4017 25.6658 24.469 25.6028L25.9514 24.1918C26.0199 24.1265 26.0139 24.0147 25.9465 23.9505L18.181 16.5584C19.8163 14.8095 20.8091 12.5047 20.8091 9.97849C20.8091 4.50904 16.1503 0.0742188 10.4046 0.0742188ZM10.4046 18.7176C5.33449 18.7176 1.22406 14.8048 1.22406 9.97853C1.22406 5.15223 5.33445 1.23946 10.4046 1.23946C15.4747 1.23946 19.585 5.15223 19.585 9.97853C19.585 14.8048 15.4746 18.7176 10.4046 18.7176Z" fill="#C92F49"/>
</svg>
