<svg width="49" height="48" viewBox="0 0 49 48" fill="none" xmlns="http://www.w3.org/2000/svg">
<path fill-rule="evenodd" clip-rule="evenodd" d="M47.4596 36.343C47.4596 38.9376 46.4182 41.4259 44.5645 43.2605C42.7108 45.0951 40.1967 46.1258 37.5751 46.1258C34.9536 46.1258 32.4394 45.0951 30.5857 43.2605C28.732 41.4259 27.6906 38.9376 27.6906 36.343C27.6906 33.7485 28.732 31.2602 30.5857 29.4256C32.4394 27.591 34.9536 26.5603 37.5751 26.5603C40.1967 26.5603 42.7108 27.591 44.5645 29.4256C46.4182 31.2602 47.4596 33.7485 47.4596 36.343V36.343Z" stroke="#C92F49" stroke-width="2.625" stroke-linejoin="round"/>
<path d="M42.5174 36.343H32.6329M37.5751 31.4517V41.2344V31.4517Z" stroke="#C92F49" stroke-width="2.625" stroke-linecap="round" stroke-linejoin="round"/>
<path d="M28.6099 26.1347C27.0778 25.6309 25.4172 25.0928 23.7368 24.457V19.5656C23.7368 19.5656 26.7022 18.3574 26.7022 13.6959C28.2491 13.6959 28.2491 9.64589 26.7022 9.64589C26.7022 9.19588 28.3331 6.50563 27.6906 3.9132C26.7516 0.195761 15.7798 0.195761 14.8408 3.91809C10.1605 2.98873 12.8639 9.16653 12.8639 9.78774C11.3169 9.78774 11.3169 13.7008 12.8639 13.7008C12.8639 18.3623 15.8292 19.5705 15.8292 19.5705V24.4619C10.3384 26.5309 3.79483 27.9005 2.97936 30.3315C2.04033 33.1294 1.99091 38.2995 1.99091 38.2995H22.7484" stroke="#C92F49" stroke-width="2.625" stroke-linejoin="round"/>
</svg>
