<svg width="17" height="17" viewBox="0 0 17 17" fill="none" xmlns="http://www.w3.org/2000/svg">
<path d="M8.5 2.125C9.66875 2.125 10.625 3.08125 10.625 4.25C10.625 5.41875 9.66875 6.375 8.5 6.375C7.33125 6.375 6.375 5.41875 6.375 4.25C6.375 3.08125 7.33125 2.125 8.5 2.125ZM8.5 12.75C11.3687 12.75 14.6625 14.1206 14.875 14.875H2.125C2.36937 14.11 5.64187 12.75 8.5 12.75ZM8.5 0C6.15188 0 4.25 1.90188 4.25 4.25C4.25 6.59812 6.15188 8.5 8.5 8.5C10.8481 8.5 12.75 6.59812 12.75 4.25C12.75 1.90188 10.8481 0 8.5 0ZM8.5 10.625C5.66313 10.625 0 12.0487 0 14.875V17H17V14.875C17 12.0487 11.3369 10.625 8.5 10.625Z" fill="#C92F49"/>
</svg>
