<svg width="734" height="495" viewBox="0 0 734 495" fill="none" xmlns="http://www.w3.org/2000/svg">
<path d="M220.666 296.453H202.869L201.757 349.624C200.422 351.378 192.673 379.224 188.965 392.927V485.017C188.965 490.717 191.931 492.874 193.415 493.239H229.565C233.569 490.608 234.57 486.661 234.57 485.017L233.458 392.927C233.903 388.981 225.116 362.414 220.666 349.624V296.453Z" fill="#CA3047" stroke="black"/>
<path d="M653.259 87.3973C653.173 85.6057 653.075 83.567 654.274 79.8855H685.767C686.168 81.8508 686.404 84.7464 686.297 87.4509C686.239 88.8933 686.085 90.2632 685.815 91.3972C685.539 92.5492 685.161 93.3827 684.707 93.8295C683.025 95.4874 681.957 96.4027 680.433 97.1836C678.888 97.9757 676.86 98.6371 673.234 99.7367C670.475 100.573 667.248 100.19 664.252 99.3632C661.3 98.5492 658.635 97.3236 656.972 96.5059C656.972 96.5053 656.971 96.5047 656.97 96.5041C656.235 95.8703 655.343 95.1013 654.617 93.9233C653.88 92.727 653.301 91.0828 653.301 88.7041C653.301 88.2695 653.28 87.841 653.259 87.3973Z" fill="#CA3047" stroke="black"/>
<path d="M103.802 55.144C102.775 51.0964 103.205 46.5467 103.712 44.2557H139.552C140.059 53.2022 139.48 56.877 137.353 61.0703C136.204 63.3356 134.423 65.8224 132.512 67.99C130.596 70.1625 128.581 71.9771 126.977 72.9255C125.768 73.6404 123.799 73.9484 121.67 73.8378C119.553 73.7278 117.375 73.209 115.787 72.366C112.731 70.7445 109.905 67.1472 107.737 63.5406C105.574 59.9432 104.133 56.4494 103.802 55.144Z" fill="#CA3047" stroke="black"/>
<path d="M277.578 51.112C277.416 49.1622 277.494 47.4909 277.765 46.4483H327.263C327.593 50.8254 327.316 53.6463 326.615 55.8762C325.89 58.1847 324.7 59.8997 323.147 62.1049C319.965 66.6225 314.088 69.8258 309.456 71.7995C307.689 72.5523 304.756 72.9945 301.656 73.0186C298.561 73.0428 295.387 72.6495 293.145 71.7925C288.811 70.1354 285.503 67.3191 283.156 64.5691C280.805 61.8144 279.439 59.1514 278.978 57.8415C278.22 55.6885 277.756 53.2662 277.578 51.112Z" fill="#CA3047" stroke="black"/>
<path d="M464.291 51.4976C464.128 49.3902 464.207 47.5778 464.487 46.4483H514.232C514.567 51.1704 514.29 54.2166 513.581 56.6266C512.849 59.1143 511.648 60.9614 510.088 63.3276C506.886 68.1842 500.977 71.6231 496.324 73.7404C494.551 74.547 491.608 75.0214 488.494 75.0473C485.386 75.0732 482.2 74.6513 479.95 73.7326C475.597 71.9548 472.271 68.9315 469.909 65.9756C467.544 63.0159 466.168 60.1522 465.702 58.7384C464.939 56.4213 464.471 53.8153 464.291 51.4976Z" fill="#CA3047" stroke="black"/>
<path d="M554.389 51.4976C554.226 49.3902 554.305 47.5778 554.584 46.4483H604.33C604.673 51.1862 604.51 54.3459 603.909 56.8692C603.292 59.4631 602.205 61.4195 600.661 63.7621C597.441 68.6462 593.242 71.6445 588.636 73.7404C586.872 74.5429 583.384 75.0212 579.699 75.0473C576.022 75.0733 572.289 74.6479 570.048 73.7326C565.694 71.9548 562.369 68.9315 560.007 65.9756C557.642 63.0159 556.266 60.1522 555.8 58.7384C555.036 56.4213 554.569 53.8153 554.389 51.4976Z" fill="#CA3047" stroke="black"/>
<path d="M376.624 48.5449C376.893 45.8753 377.355 43.4825 377.67 42.0631H417.486C417.511 42.5191 417.536 42.9618 417.559 43.3919C418.117 53.5035 418.289 56.6352 415.98 61.635C414.691 64.425 412.507 67.2165 410.422 69.4194C409.383 70.5181 408.375 71.4629 407.527 72.1802C406.667 72.908 406.005 73.3736 405.65 73.5446C404.131 74.2761 401.152 74.8206 398.048 74.8994C396.507 74.9384 394.957 74.8619 393.569 74.6435C392.174 74.4241 390.975 74.0664 390.111 73.5632C386.607 71.5203 383.483 68.2896 381.133 65.1331C378.773 61.9644 377.246 58.9409 376.878 57.347C376.27 54.7159 376.327 51.4839 376.624 48.5449Z" fill="#CA3047" stroke="black"/>
<path d="M194.532 52.8756C193.515 48.0271 193.949 42.581 194.453 39.8705H229.448C229.952 50.518 229.389 54.9074 227.289 59.9127C226.161 62.6028 224.415 65.5497 222.544 68.1149C220.668 70.6877 218.696 72.8346 217.13 73.9551C215.96 74.7911 214.057 75.1526 211.989 75.0227C209.934 74.8936 207.818 74.2844 206.273 73.293C204.792 72.3423 203.352 70.8053 202.01 68.9514C200.671 67.1023 199.447 64.9645 198.392 62.8408C196.275 58.5835 194.86 54.4398 194.532 52.8756Z" fill="#CA3047" stroke="black"/>
<path d="M136.13 16.8964H107.21C104.058 26.2149 98.7026 46.6164 99.98 54.1706C101.648 64.0373 112.215 75.0003 116.109 80.4818C118.444 83.7707 119.075 87.425 118.889 89.2522V126.526C118.889 127.623 118.333 135.845 118.333 135.845C118.333 135.845 117.221 138.038 115.552 140.23C113.884 142.423 112.215 142.971 109.991 144.067C108.865 144.622 105.171 145.529 103.873 145.712C101.092 146.103 97.7554 146.041 97.7554 147.356C97.7554 148.672 102.205 149.001 104.429 149.001H137.243C140.023 149.001 143.36 149.001 145.585 147.904C146.697 147.356 143.916 146.26 141.136 145.712C139.5 145.389 137.243 145.164 135.018 144.615C132.793 144.067 130.569 143.519 126.676 139.134C125.211 137.484 124.451 131.642 124.451 128.719V105.697V90.3485C124.451 82.6548 125.007 82.6744 126.676 80.4818C128.168 78.5207 135.574 70.0669 139.467 63.4891C140.497 61.7498 141.169 60.2446 141.692 59.1039C142.446 57.4595 143.36 54.537 143.36 51.978C143.36 49.7179 142.804 43.2076 142.248 39.9187C141.949 38.1504 140.209 29.6865 138.911 25.1186L136.13 16.8964Z" stroke="black"/>
<path d="M321.88 16.3482H282.4C278.244 25.6281 273.905 43.9104 274.614 53.0743C275.419 63.4891 290.058 73.3786 295.191 78.8373C298.272 82.1126 299.39 86.5842 299.145 88.4038V125.523V133.652C299.145 133.652 299.616 137.499 297.416 139.682C295.216 141.866 294.788 141.879 291.854 142.971C290.37 143.523 285.78 144.982 284.068 145.164C280.401 145.553 277.951 146.046 277.951 147.356C277.951 148.666 286.14 149.001 289.074 149.001H314.101C317.768 149.001 323.403 148.996 326.336 147.904C327.803 147.358 323.885 145.709 320.219 145.164L312.988 143.519L307.983 141.326C305.202 139.682 305.202 131.082 305.202 128.171V104.052V89.8003C305.202 82.149 306.336 81.0239 308.53 78.8462L308.539 78.8373C310.507 76.8843 321.147 69.2982 326.28 62.7476C327.638 61.0155 327.871 59.6917 328.561 58.5558C329.555 56.9181 329.947 53.43 329.947 50.8817C329.947 48.631 328.738 42.0976 328.005 38.8224C327.61 37.0614 326.28 30.6001 324.668 25.6668L321.88 16.3482Z" stroke="black"/>
<path d="M414.476 17.4445H380.397C376.809 26.6477 373.064 44.7789 373.676 53.8671C374.371 64.1958 387.007 74.0036 391.438 79.4172C394.097 82.6654 394.399 86.8995 394.188 88.704V125.43V133.652C394.188 133.652 394.573 137.11 392.519 139.134C391.407 140.23 390.014 141.591 388.07 142.423C386.789 142.971 385.289 143.564 381.952 144.615C378.914 145.572 373.61 146.26 373.053 147.37C372.47 148.535 378.615 149.001 386.158 149.001H407.761C410.926 149.001 420.327 149.001 421.439 147.37C422.209 146.241 416.434 145.712 413.097 144.615L407.535 142.971L403.086 140.23C400.305 139.682 400.08 131.23 400.08 128.343V104.424V90.2896C400.08 82.7015 401.058 81.5857 402.952 79.426L402.96 79.4172C404.659 77.4804 413.843 69.9569 418.274 63.4605C419.446 61.7426 419.647 60.4298 420.243 59.3033C421.101 57.6792 421.439 54.2199 421.439 51.6926C421.439 49.4605 420.396 42.9811 419.763 39.7329C419.422 37.9865 418.274 31.5786 416.882 26.6861L414.476 17.4445Z" stroke="black"/>
<path d="M683.946 55.815H655.582C653.357 66.778 649.959 82.739 650.576 89.2522C651.194 95.7653 654.496 98.0484 656.694 100.215C657.806 101.311 660.031 102.408 664.48 104.6L664.48 104.6C668.373 105.149 667.027 128.618 667.261 132.556C667.307 133.331 667.261 139.134 667.261 139.134C667.261 139.134 666.771 141.575 664.699 143.026C663.576 143.811 662.171 144.787 660.209 145.383C658.916 145.775 657.402 146.201 654.034 146.954C650.968 147.64 649.469 148.205 648.908 149.001C648.319 149.835 650.667 150.097 658.279 150.097H680.081C683.276 150.097 689.497 150.169 690.62 149.001C691.397 148.192 688.835 147.74 685.467 146.954L679.854 145.776L675.363 143.811C672.329 140.23 672.329 137.361 672.329 135.292V118.15V112.823C672.329 107.377 673.131 106.152 675.047 104.6C676.762 103.212 681.904 101.679 685.614 98.0226C687.283 96.3781 688.951 94.1855 689.287 92.5411C689.958 89.2522 688.951 82.8412 688.951 81.0299C688.951 79.4302 687.922 74.0392 687.283 71.7114C686.644 69.3835 686.17 65.1336 685.058 61.2965L683.946 55.815Z" stroke="black"/>
<path d="M510.204 7.57782H468.713C465.092 17.4713 460.37 43.7557 462.039 53.6224C464.263 66.778 467.691 68.5643 473.718 72.8077C477.611 75.5484 483.729 77.1929 486.51 83.7707V123.786V131.46C486.51 131.46 486.598 136.958 484.525 139.134C483.403 140.312 483.088 141.036 481.126 141.929C479.833 142.518 478.319 143.157 474.951 144.286C471.885 145.315 466.532 146.054 465.971 147.247C465.381 148.5 471.584 149.001 479.196 149.001H500.998C504.193 149.001 513.681 149.001 514.803 147.247C515.58 146.034 509.752 145.465 506.384 144.286L500.771 142.519L495.408 140.23C492.626 139.646 492.627 129.806 492.627 126.61L492.627 126.526V101.86V85.9633C492.627 77.795 498.189 77.7411 501.526 75.5484C503.79 74.0611 508.639 71.569 513.111 64.5854C514.294 62.7388 516.542 58.0076 516.542 53.6224V44.852C516.542 42.4525 516.069 35.1882 515.43 31.6964C515.086 29.819 514.516 22.704 513.111 17.4445L510.204 7.57782Z" stroke="black"/>
<path d="M600.898 1H558.254C556.029 12.5112 549.366 40.556 551.024 50.8817C553.235 64.6492 556.714 67.6913 562.703 72.1321C566.572 75.0003 573.288 77.4351 576.051 84.3188C576.051 100.381 576.607 121.715 576.607 122.689V130.912C576.607 130.912 576.607 135.297 574.939 138.586C574.189 140.064 573.953 140.665 572.002 141.601C570.718 142.217 569.214 142.885 565.867 144.067C562.82 145.144 557.501 145.917 556.943 147.166C556.357 148.476 562.521 149.001 570.085 149.001H591.75C594.924 149.001 604.352 149.001 605.468 147.166C606.24 145.896 600.448 145.301 597.102 144.067L591.524 142.217L586.195 139.822C582.725 136.393 582.725 128.678 582.725 125.43V99.667V86.5114C582.725 77.9632 590.532 76.7467 593.848 74.4521C596.098 72.8956 601.64 69.7012 606.084 62.3928C607.259 60.4603 608.308 55.4708 608.308 50.8817C608.308 44.5716 608.16 41.637 607.752 38.8224C607.196 34.9853 606.725 29.8946 606.091 26.2404C605.749 24.2757 604.415 16.8964 603.303 11.4149L600.898 1Z" stroke="black"/>
<path d="M226.228 10.8667H196.751C195.083 20.7334 189.356 46.0682 190.634 53.6224C192.302 63.4891 202.313 74.4521 206.206 79.9336C208.542 83.2225 209.172 86.8769 208.987 88.704V125.978C208.987 127.075 208.431 135.297 208.431 135.297C208.431 135.297 207.318 137.489 205.65 139.682C203.982 141.875 202.313 142.423 200.088 143.519C198.963 144.074 195.268 144.981 193.971 145.164C191.19 145.555 187.853 145.492 187.853 146.808C187.853 148.124 192.302 148.452 194.527 148.452H227.34C230.121 148.452 233.458 148.452 235.683 147.356C236.795 146.808 234.014 145.712 231.233 145.164C229.597 144.841 227.34 144.615 225.116 144.067C222.891 143.519 220.666 142.971 216.773 138.586C215.308 136.936 214.549 131.094 214.549 128.171V105.149V89.8003C214.549 82.1067 215.105 82.1262 216.773 79.9336C218.266 77.9725 225.672 69.5188 229.565 62.941C230.594 61.2016 231.266 59.6964 231.789 58.5558C232.544 56.9113 232.902 55.0851 232.902 52.5261C232.902 50.266 232.438 43.7557 231.789 39.9187C231.49 38.1504 230.677 33.889 229.565 25.1186L226.228 10.8667Z" stroke="black"/>
<path d="M16.4544 26.7149H41.6972C42.7509 35.6005 42.7519 53.2287 42.7519 58.0076C42.7519 60.684 42.3936 62.2739 41.666 64.4252C40.9503 66.5415 39.8392 68.1336 38.9706 69.2037C37.8804 70.5467 37.0196 71.3016 36.1553 71.7827C35.289 72.265 34.3828 72.4936 33.1477 72.7284C30.017 73.3235 26.3032 73.1105 23.4376 71.8045C20.674 70.5451 19.095 68.5423 18.0828 67.046L18.0298 66.9677C17.4996 66.1842 17.1635 65.6876 16.8674 64.9478C16.5579 64.1745 16.2869 63.1195 15.9358 61.2063C15.7935 60.4308 15.6853 58.5521 15.6247 55.9512C15.5646 53.3683 15.552 50.1154 15.5919 46.6222C15.6696 39.8234 15.9458 32.1337 16.4544 26.7149Z" fill="#CA3047" stroke="black"/>
<path d="M42.6956 3.19263H15.4439C14.3316 19.2717 12.107 52.855 12.107 58.5558C12.107 65.6818 17.1124 71.1633 22.1178 77.7411C26.1222 83.0033 26.011 92.5411 26.0109 96.9263C26.011 99.6671 26.4559 107.67 26.0109 124.334C25.5695 140.866 23.7863 139.682 19.8932 142.423C17.6685 143.519 16.9848 143.561 13.7754 144.615C10.4385 145.712 2.75433 146.584 5.43317 147.904C6.5455 148.452 15.4439 149.549 32.1287 149.549C48.8134 149.549 53.7902 148.916 53.2626 147.356C52.7066 145.712 38.2465 142.971 34.9095 140.778C31.9249 138.817 32.1288 135.297 32.1288 129.815C32.1288 122.141 32.5736 106.574 32.1287 96.9263C31.6837 87.2789 32.1287 85.4152 34.3533 81.03C36.2071 77.3756 42.7034 70.5946 44.3641 66.2299C47.7012 57.4595 44.7349 22.926 42.6956 3.19263Z" stroke="black"/>
<path d="M21.1939 306.868H21.0055C21.107 306.868 21.1807 306.847 21.2294 306.824C21.3334 306.776 21.3242 306.717 21.2294 306.824C21.2187 306.837 21.2068 306.851 21.1939 306.868H36.5779C38.2464 310.157 39.3587 315.638 37.1341 320.023C37.1341 330.986 37.4173 353.8 37.6903 357.298C38.2464 364.424 57.7119 406.631 57.7119 423.624C57.7119 439.128 56.5996 489.402 54.375 491.594C52.1504 493.787 5.98927 495.431 3.76464 491.594C-0.128441 484.88 0.660577 414.483 2.65232 406.631C3.7647 402.246 14.3316 379.224 17.6686 366.068C18.7809 362.048 21.0055 351.268 21.0055 340.305V321.12C21.0055 318.379 18.8983 315.117 19.8932 310.705C20.4922 308.048 20.9836 307.14 21.1939 306.868Z" fill="#CA3047"/>
<path d="M21.0055 306.868H36.578C38.2464 310.157 39.3587 315.638 37.1341 320.023C37.1341 330.986 37.4173 353.8 37.6903 357.298C38.2464 364.424 57.7119 406.631 57.7119 423.624C57.7119 439.128 56.5996 489.402 54.375 491.594C52.1504 493.787 5.98927 495.431 3.76464 491.594C-0.128441 484.88 0.660577 414.483 2.65232 406.631C3.7647 402.246 14.3316 379.224 17.6686 366.068C18.7809 362.048 21.0055 351.268 21.0055 340.305C21.0055 326.601 21.0055 323.861 21.0055 321.12C21.0055 318.379 18.8983 315.117 19.8932 310.705C21.0055 305.772 21.7471 306.868 21.0055 306.868Z" stroke="black"/>
<path d="M293.666 306.972H293.507C293.582 306.972 293.643 306.959 293.689 306.942C293.857 306.88 293.839 306.755 293.689 306.942C293.682 306.951 293.674 306.961 293.666 306.972L310.764 306.972C311.876 311.801 311.876 314.542 310.764 319.475C310.764 330.438 311.876 351.816 311.876 357.298C311.876 362.779 329.673 400.602 328.561 423.624C327.813 439.11 329.101 489.506 326.876 491.698C324.652 493.891 280.175 495.535 277.951 491.698C274.057 484.983 274.274 414.483 276.266 406.631C277.378 402.246 286.833 379.327 290.17 366.172C291.282 362.152 293.507 351.372 293.507 340.409V321.224C293.507 318.483 291.416 315.117 292.411 310.705C292.977 308.193 293.443 307.272 293.666 306.972Z" fill="#CA3047"/>
<path d="M293.507 306.972L310.764 306.972C311.876 311.801 311.876 314.542 310.764 319.475C310.764 330.438 311.876 351.816 311.876 357.298C311.876 362.779 329.673 400.602 328.561 423.624C327.813 439.11 329.101 489.506 326.876 491.698C324.652 493.891 280.175 495.535 277.951 491.698C274.057 484.983 274.274 414.483 276.266 406.631C277.378 402.246 286.833 379.327 290.17 366.172C291.282 362.152 293.507 351.372 293.507 340.409C293.507 326.705 293.507 323.964 293.507 321.224C293.507 318.483 291.416 315.117 292.411 310.705C293.523 305.772 294.248 306.972 293.507 306.972Z" stroke="black"/>
<path d="M389.354 306.972H389.166C389.267 306.972 389.341 306.951 389.39 306.928C389.494 306.88 389.485 306.821 389.39 306.928C389.379 306.941 389.367 306.955 389.354 306.972H404.738C406.407 310.261 407.519 315.742 405.295 320.127C405.295 331.09 406.979 353.241 406.979 356.75C406.979 364.972 424.22 405.535 424.22 422.528C424.22 438.032 424.76 489.506 422.535 491.698C420.311 493.891 372.253 493.787 371.925 491.698C370.273 481.18 369.933 413.935 371.925 406.083C373.038 401.698 382.492 379.327 385.829 366.172C386.941 362.152 389.166 351.372 389.166 340.409V321.224C389.166 318.483 387.059 315.221 388.054 310.809C388.653 308.152 389.144 307.244 389.354 306.972Z" fill="#CA3047"/>
<path d="M389.166 306.972H404.738C406.407 310.261 407.519 315.742 405.295 320.127C405.295 331.09 406.979 353.241 406.979 356.75C406.979 364.972 424.22 405.535 424.22 422.528C424.22 438.032 424.76 489.506 422.535 491.698C420.311 493.891 372.253 493.787 371.925 491.698C370.273 481.18 369.933 413.935 371.925 406.083C373.038 401.698 382.492 379.327 385.829 366.172C386.941 362.152 389.166 351.372 389.166 340.409C389.166 326.705 389.166 323.964 389.166 321.224C389.166 318.483 387.059 315.221 388.054 310.809C389.166 305.875 389.908 306.972 389.166 306.972Z" stroke="black"/>
<path d="M129.456 296.453H115.552C111.993 301.715 112.586 307.416 113.328 309.609V346.335C104.429 352.035 99.98 360.404 98.8677 363.875V489.402C99.7576 492.472 102.205 493.604 103.317 493.787H139.467C143.916 492.472 146.512 490.315 147.253 489.402L146.141 363.875C145.251 356.859 136.13 349.258 131.681 346.335V309.609C133.461 303.031 130.939 298.097 129.456 296.453Z" fill="#CA3047" stroke="black"/>
<path d="M497.077 296.453H481.504C479.28 301.386 480.392 306.868 480.392 310.157V346.162C471.493 351.862 466.488 357.298 465.932 364.424V489.95C466.822 493.02 469.269 493.604 470.381 493.787L507.644 493.239C512.093 491.923 513.02 490.864 513.761 489.95L513.205 364.424C509.312 352.364 503.194 349.806 498.745 346.883V310.157C498.745 303.031 498.56 298.097 497.077 296.453Z" fill="#CA3047" stroke="black"/>
<path d="M587.73 295.905H571.602C569.377 303.031 570.304 306.868 571.046 309.06V345.238C562.147 350.939 556.029 359.856 554.917 363.327L556.586 488.854C558.254 493.239 559.366 493.056 560.479 493.239H596.629C601.078 491.923 602.005 489.767 602.747 488.854L604.415 363.327C603.525 356.311 593.292 348.71 588.843 345.787V309.06C588.843 301.934 589.399 299.742 587.73 295.905Z" fill="#CA3047" stroke="black"/>
<path d="M665.593 322.764C662.033 329.342 663.368 332.814 664.48 333.727L663.924 379.224C651.689 385.801 647.981 390.004 646.683 392.927L645.571 486.113C645.571 489.183 648.537 491.777 650.02 492.691H695.625C700.074 491.814 700.816 487.94 700.631 486.113L699.518 392.927C699.518 388.542 688.58 383.061 682.277 380.32V333.727C683.612 331.973 683.39 325.505 680.609 322.764H665.593Z" fill="#CA3047" stroke="black"/>
<path d="M13.2564 222.341C12.9391 222.341 12.6124 222.317 12.2764 222.271C11.9404 222.233 11.6184 222.177 11.3104 222.103C11.0118 222.019 10.7458 221.925 10.5124 221.823L10.6944 220.927C11.0678 221.067 11.4644 221.183 11.8844 221.277C12.3138 221.361 12.7338 221.403 13.1444 221.403C13.7604 221.403 14.2271 221.305 14.5444 221.109C14.8618 220.913 15.0204 220.619 15.0204 220.227C15.0204 219.975 14.9504 219.774 14.8104 219.625C14.6704 219.466 14.4604 219.335 14.1804 219.233C13.9098 219.121 13.5644 219.018 13.1444 218.925C12.6404 218.794 12.1831 218.645 11.7724 218.477C11.3711 218.309 11.0538 218.089 10.8204 217.819C10.5964 217.539 10.4844 217.179 10.4844 216.741C10.4844 216.106 10.7271 215.621 11.2124 215.285C11.7071 214.949 12.4164 214.781 13.3404 214.781C13.7791 214.781 14.2224 214.818 14.6704 214.893C15.1278 214.967 15.5338 215.075 15.8884 215.215L15.6924 216.125C15.3658 215.985 15.0111 215.882 14.6284 215.817C14.2458 215.751 13.8584 215.719 13.4664 215.719C12.8411 215.719 12.3698 215.807 12.0524 215.985C11.7444 216.162 11.5904 216.423 11.5904 216.769C11.5904 217.002 11.6558 217.189 11.7864 217.329C11.9171 217.469 12.1131 217.59 12.3744 217.693C12.6358 217.795 12.9671 217.893 13.3684 217.987C13.7511 218.071 14.1058 218.173 14.4324 218.295C14.7684 218.416 15.0624 218.561 15.3144 218.729C15.5664 218.897 15.7624 219.107 15.9024 219.359C16.0518 219.611 16.1264 219.909 16.1264 220.255C16.1264 220.693 16.0098 221.067 15.7764 221.375C15.5524 221.683 15.2258 221.921 14.7964 222.089C14.3671 222.257 13.8538 222.341 13.2564 222.341ZM21.5344 214.781C22.5051 214.781 23.2611 215.117 23.8024 215.789C24.3437 216.451 24.6144 217.375 24.6144 218.561C24.6144 219.746 24.3437 220.675 23.8024 221.347C23.2611 222.009 22.5051 222.341 21.5344 222.341C21.0024 222.341 20.5124 222.243 20.0644 222.047C19.6257 221.841 19.2804 221.566 19.0284 221.221H19.0004V225.141H17.8944V214.921H18.9584V215.901H18.9864C19.2477 215.546 19.6024 215.271 20.0504 215.075C20.5077 214.879 21.0024 214.781 21.5344 214.781ZM21.2964 215.719C20.8577 215.719 20.4657 215.812 20.1204 215.999C19.7751 216.176 19.4997 216.423 19.2944 216.741C19.0984 217.049 19.0004 217.413 19.0004 217.833V219.289C19.0004 219.699 19.0984 220.063 19.2944 220.381C19.4997 220.698 19.7751 220.95 20.1204 221.137C20.4657 221.314 20.8577 221.403 21.2964 221.403C22.0151 221.403 22.5657 221.16 22.9484 220.675C23.3404 220.18 23.5364 219.475 23.5364 218.561C23.5364 217.646 23.3404 216.946 22.9484 216.461C22.5657 215.966 22.0151 215.719 21.2964 215.719ZM28.1606 222.341C27.4233 222.341 26.84 222.145 26.4106 221.753C25.9813 221.351 25.7666 220.815 25.7666 220.143C25.7666 219.303 26.1073 218.659 26.7886 218.211C27.47 217.753 28.4453 217.525 29.7146 217.525H30.8766C30.8766 217.058 30.8206 216.694 30.7086 216.433C30.5966 216.171 30.41 215.989 30.1486 215.887C29.8873 215.775 29.5233 215.719 29.0566 215.719C28.59 215.719 28.114 215.765 27.6286 215.859C27.1526 215.952 26.6953 216.092 26.2566 216.279L26.0606 215.383C26.5273 215.187 27.0266 215.037 27.5586 214.935C28.1 214.832 28.646 214.781 29.1966 214.781C29.8966 214.781 30.4473 214.869 30.8486 215.047C31.25 215.224 31.5393 215.523 31.7166 215.943C31.894 216.363 31.9826 216.923 31.9826 217.623V222.201H30.9186L30.9046 221.207H30.8766C30.634 221.543 30.256 221.818 29.7426 222.033C29.2386 222.238 28.7113 222.341 28.1606 222.341ZM28.5106 221.431C28.9493 221.431 29.346 221.347 29.7006 221.179C30.0646 221.011 30.3493 220.787 30.5546 220.507C30.7693 220.217 30.8766 219.9 30.8766 219.555V218.379H29.8546C28.8653 218.379 28.1186 218.523 27.6146 218.813C27.1106 219.093 26.8586 219.503 26.8586 220.045C26.8586 220.474 27.0033 220.815 27.2926 221.067C27.582 221.309 27.988 221.431 28.5106 221.431ZM34.1092 222.201V214.921H35.1732L35.1872 216.447H35.2152C35.4299 216.101 35.7052 215.807 36.0412 215.565C36.3772 215.313 36.7599 215.121 37.1892 214.991C37.6186 214.851 38.0712 214.781 38.5472 214.781V215.761C37.9312 215.761 37.3712 215.887 36.8672 216.139C36.3632 216.391 35.9619 216.727 35.6632 217.147C35.3739 217.567 35.2292 218.038 35.2292 218.561V222.201H34.1092ZM39.9881 222.201V211.981H41.1081V218.043H41.1361L44.8881 214.921H46.3441L42.1161 218.421L46.5261 222.201H45.0701L41.1361 218.785H41.1081V222.201H39.9881ZM48.2352 222.201V211.981H49.3552V222.201H48.2352ZM51.9266 213.283V211.981H53.2286V213.283H51.9266ZM52.0246 222.201V214.921H53.1446V222.201H52.0246ZM55.7108 222.201V214.921H56.7888V215.901H56.8168C57.0968 215.537 57.4608 215.261 57.9088 215.075C58.3568 214.879 58.8655 214.781 59.4348 214.781C60.3121 214.781 60.9608 215.019 61.3808 215.495C61.8008 215.971 62.0108 216.713 62.0108 217.721V222.201H60.9188V217.917C60.9188 217.161 60.7741 216.605 60.4848 216.251C60.2048 215.896 59.7615 215.719 59.1548 215.719C58.6975 215.719 58.2915 215.812 57.9368 215.999C57.5915 216.176 57.3161 216.423 57.1108 216.741C56.9148 217.049 56.8168 217.408 56.8168 217.819V222.201H55.7108ZM66.6947 225.281C66.144 225.281 65.6213 225.225 65.1267 225.113C64.6413 225.001 64.2213 224.837 63.8667 224.623L64.0627 223.727C64.3987 223.923 64.786 224.072 65.2247 224.175C65.6727 224.287 66.13 224.343 66.5967 224.343C67.5207 224.343 68.1787 224.119 68.5707 223.671C68.972 223.232 69.1727 222.509 69.1727 221.501V220.857H69.1447C68.8927 221.183 68.5473 221.445 68.1087 221.641C67.67 221.827 67.1847 221.921 66.6527 221.921C65.682 221.921 64.9213 221.608 64.3707 220.983C63.82 220.348 63.5447 219.471 63.5447 218.351C63.5447 217.231 63.82 216.358 64.3707 215.733C64.9213 215.098 65.682 214.781 66.6527 214.781C67.1847 214.781 67.6747 214.879 68.1227 215.075C68.5707 215.261 68.9207 215.518 69.1727 215.845H69.2007L69.2147 214.921H70.2647V221.501C70.2647 222.807 69.9753 223.764 69.3967 224.371C68.8273 224.977 67.9267 225.281 66.6947 225.281ZM66.8907 220.983C67.3293 220.983 67.7167 220.903 68.0527 220.745C68.398 220.577 68.6687 220.353 68.8647 220.073C69.07 219.783 69.1727 219.452 69.1727 219.079V217.623C69.1727 217.259 69.07 216.932 68.8647 216.643C68.6687 216.353 68.398 216.129 68.0527 215.971C67.7167 215.803 67.3293 215.719 66.8907 215.719C66.1813 215.719 65.626 215.947 65.2247 216.405C64.8327 216.862 64.6367 217.511 64.6367 218.351C64.6367 219.191 64.8327 219.839 65.2247 220.297C65.626 220.754 66.1813 220.983 66.8907 220.983ZM12.2904 237.201L10.2324 229.921H11.4364L12.9764 236.123H13.0044L14.5304 229.921H16.0284L17.5544 236.123H17.5824L19.1224 229.921H20.3124L18.2684 237.201H16.8124L15.2864 231.097H15.2584L13.7324 237.201H12.2904ZM21.9852 228.283V226.981H23.2872V228.283H21.9852ZM22.0832 237.201V229.921H23.2032V237.201H22.0832ZM25.7694 237.201V229.921H26.8474V230.901H26.8754C27.1554 230.537 27.5194 230.261 27.9674 230.075C28.4154 229.879 28.9241 229.781 29.4934 229.781C30.3707 229.781 31.0194 230.019 31.4394 230.495C31.8594 230.971 32.0694 231.713 32.0694 232.721V237.201H30.9774V232.917C30.9774 232.161 30.8327 231.605 30.5434 231.251C30.2634 230.896 29.8201 230.719 29.2134 230.719C28.7561 230.719 28.3501 230.812 27.9954 230.999C27.6501 231.176 27.3747 231.423 27.1694 231.741C26.9734 232.049 26.8754 232.408 26.8754 232.819V237.201H25.7694ZM37.4113 237.341C36.1979 237.341 35.2599 237.014 34.5973 236.361C33.9439 235.707 33.6173 234.774 33.6173 233.561C33.6173 232.385 33.9206 231.461 34.5273 230.789C35.1433 230.117 35.9926 229.781 37.0753 229.781C38.1113 229.781 38.9046 230.098 39.4553 230.733C40.0059 231.358 40.2813 232.259 40.2813 233.435C40.2813 233.528 40.2813 233.626 40.2813 233.729C40.2813 233.831 40.2766 233.92 40.2673 233.995H34.2193V233.099H39.4553L39.2453 233.393C39.2453 232.487 39.0633 231.811 38.6993 231.363C38.3353 230.915 37.7939 230.691 37.0753 230.691C36.3099 230.691 35.7219 230.933 35.3113 231.419C34.9006 231.895 34.6953 232.576 34.6953 233.463V233.743C34.6953 234.629 34.9193 235.297 35.3673 235.745C35.8246 236.183 36.4919 236.403 37.3693 236.403C37.7706 236.403 38.1859 236.361 38.6153 236.277C39.0539 236.193 39.4459 236.081 39.7913 235.941L39.9593 236.837C39.6046 236.995 39.2033 237.117 38.7553 237.201C38.3073 237.294 37.8593 237.341 37.4113 237.341Z" fill="black"/>
<path d="M95.8898 222.341C94.9098 222.341 94.1445 222.009 93.5938 221.347C93.0525 220.675 92.7818 219.746 92.7818 218.561C92.7818 217.375 93.0525 216.451 93.5938 215.789C94.1445 215.117 94.9098 214.781 95.8898 214.781C96.4125 214.781 96.8978 214.879 97.3458 215.075C97.7938 215.271 98.1391 215.546 98.3818 215.901H98.4098V211.981H99.5018V222.201H98.4658L98.4518 221.221H98.4238C98.1718 221.566 97.8171 221.841 97.3598 222.047C96.9025 222.243 96.4125 222.341 95.8898 222.341ZM96.1138 221.403C96.5618 221.403 96.9538 221.314 97.2898 221.137C97.6351 220.95 97.9058 220.698 98.1018 220.381C98.3071 220.063 98.4098 219.699 98.4098 219.289V217.833C98.4098 217.422 98.3071 217.058 98.1018 216.741C97.9058 216.423 97.6351 216.176 97.2898 215.999C96.9538 215.812 96.5618 215.719 96.1138 215.719C95.4138 215.719 94.8631 215.966 94.4618 216.461C94.0698 216.946 93.8738 217.646 93.8738 218.561C93.8738 219.475 94.0698 220.18 94.4618 220.675C94.8631 221.16 95.4138 221.403 96.1138 221.403ZM101.874 222.201V214.921H102.938L102.952 216.447H102.98C103.194 216.101 103.47 215.807 103.806 215.565C104.142 215.313 104.524 215.121 104.954 214.991C105.383 214.851 105.836 214.781 106.312 214.781V215.761C105.696 215.761 105.136 215.887 104.632 216.139C104.128 216.391 103.726 216.727 103.428 217.147C103.138 217.567 102.994 218.038 102.994 218.561V222.201H101.874ZM108.547 225.141L109.863 222.117L106.909 214.935L108.085 214.921L110.395 220.941H110.423L112.859 214.921H114.049L109.709 225.141H108.547ZM120.606 222.201L118.548 214.921H119.752L121.292 221.123H121.32L122.846 214.921H124.344L125.87 221.123H125.898L127.438 214.921H128.628L126.584 222.201H125.128L123.602 216.097H123.574L122.048 222.201H120.606ZM130.174 222.201V211.981H131.28V215.901H131.308C131.588 215.537 131.948 215.261 132.386 215.075C132.825 214.879 133.329 214.781 133.898 214.781C134.794 214.781 135.448 215.019 135.858 215.495C136.278 215.971 136.484 216.713 136.474 217.721V222.201H135.382V217.917C135.392 217.161 135.252 216.605 134.962 216.251C134.673 215.896 134.225 215.719 133.618 215.719C133.161 215.719 132.755 215.812 132.4 215.999C132.055 216.176 131.784 216.423 131.588 216.741C131.392 217.049 131.29 217.413 131.28 217.833V222.201H130.174ZM138.722 213.283V211.981H140.024V213.283H138.722ZM138.82 222.201V214.921H139.94V222.201H138.82ZM145.713 222.341C144.919 222.341 144.345 222.173 143.991 221.837C143.645 221.491 143.473 220.927 143.473 220.143V215.859H141.695V214.921H143.473V212.541H144.579V214.921H147.281V215.859H144.579V219.863C144.579 220.423 144.677 220.815 144.873 221.039C145.069 221.253 145.419 221.361 145.923 221.361C146.147 221.361 146.361 221.342 146.567 221.305C146.781 221.267 146.982 221.216 147.169 221.151L147.295 222.103C147.015 222.187 146.744 222.247 146.483 222.285C146.231 222.322 145.974 222.341 145.713 222.341ZM152.139 222.341C150.925 222.341 149.987 222.014 149.325 221.361C148.671 220.707 148.345 219.774 148.345 218.561C148.345 217.385 148.648 216.461 149.255 215.789C149.871 215.117 150.72 214.781 151.803 214.781C152.839 214.781 153.632 215.098 154.183 215.733C154.733 216.358 155.009 217.259 155.009 218.435C155.009 218.528 155.009 218.626 155.009 218.729C155.009 218.831 155.004 218.92 154.995 218.995H148.947V218.099H154.183L153.973 218.393C153.973 217.487 153.791 216.811 153.427 216.363C153.063 215.915 152.521 215.691 151.803 215.691C151.037 215.691 150.449 215.933 150.039 216.419C149.628 216.895 149.423 217.576 149.423 218.463V218.743C149.423 219.629 149.647 220.297 150.095 220.745C150.552 221.183 151.219 221.403 152.097 221.403C152.498 221.403 152.913 221.361 153.343 221.277C153.781 221.193 154.173 221.081 154.519 220.941L154.687 221.837C154.332 221.995 153.931 222.117 153.483 222.201C153.035 222.294 152.587 222.341 152.139 222.341ZM94.6018 237.201L92.5438 229.921H93.7478L95.2878 236.123H95.3158L96.8418 229.921H98.3398L99.8658 236.123H99.8938L101.434 229.921H102.624L100.58 237.201H99.1238L97.5978 231.097H97.5698L96.0438 237.201H94.6018ZM104.297 228.283V226.981H105.599V228.283H104.297ZM104.395 237.201V229.921H105.515V237.201H104.395ZM108.081 237.201V229.921H109.159V230.901H109.187C109.467 230.537 109.831 230.261 110.279 230.075C110.727 229.879 111.235 229.781 111.805 229.781C112.682 229.781 113.331 230.019 113.751 230.495C114.171 230.971 114.381 231.713 114.381 232.721V237.201H113.289V232.917C113.289 232.161 113.144 231.605 112.855 231.251C112.575 230.896 112.131 230.719 111.525 230.719C111.067 230.719 110.661 230.812 110.307 230.999C109.961 231.176 109.686 231.423 109.481 231.741C109.285 232.049 109.187 232.408 109.187 232.819V237.201H108.081ZM119.723 237.341C118.509 237.341 117.571 237.014 116.909 236.361C116.255 235.707 115.929 234.774 115.929 233.561C115.929 232.385 116.232 231.461 116.839 230.789C117.455 230.117 118.304 229.781 119.387 229.781C120.423 229.781 121.216 230.098 121.767 230.733C122.317 231.358 122.593 232.259 122.593 233.435C122.593 233.528 122.593 233.626 122.593 233.729C122.593 233.831 122.588 233.92 122.579 233.995H116.531V233.099H121.767L121.557 233.393C121.557 232.487 121.375 231.811 121.011 231.363C120.647 230.915 120.105 230.691 119.387 230.691C118.621 230.691 118.033 230.933 117.623 231.419C117.212 231.895 117.007 232.576 117.007 233.463V233.743C117.007 234.629 117.231 235.297 117.679 235.745C118.136 236.183 118.803 236.403 119.681 236.403C120.082 236.403 120.497 236.361 120.927 236.277C121.365 236.193 121.757 236.081 122.103 235.941L122.271 236.837C121.916 236.995 121.515 237.117 121.067 237.201C120.619 237.294 120.171 237.341 119.723 237.341Z" fill="black"/>
<path d="M180.104 222.341C179.786 222.341 179.46 222.317 179.124 222.271C178.788 222.233 178.466 222.177 178.158 222.103C177.859 222.019 177.593 221.925 177.36 221.823L177.542 220.927C177.915 221.067 178.312 221.183 178.732 221.277C179.161 221.361 179.581 221.403 179.992 221.403C180.608 221.403 181.074 221.305 181.392 221.109C181.709 220.913 181.868 220.619 181.868 220.227C181.868 219.975 181.798 219.774 181.658 219.625C181.518 219.466 181.308 219.335 181.028 219.233C180.757 219.121 180.412 219.018 179.992 218.925C179.488 218.794 179.03 218.645 178.62 218.477C178.218 218.309 177.901 218.089 177.668 217.819C177.444 217.539 177.332 217.179 177.332 216.741C177.332 216.106 177.574 215.621 178.06 215.285C178.554 214.949 179.264 214.781 180.188 214.781C180.626 214.781 181.07 214.818 181.518 214.893C181.975 214.967 182.381 215.075 182.736 215.215L182.54 216.125C182.213 215.985 181.858 215.882 181.476 215.817C181.093 215.751 180.706 215.719 180.314 215.719C179.688 215.719 179.217 215.807 178.9 215.985C178.592 216.162 178.438 216.423 178.438 216.769C178.438 217.002 178.503 217.189 178.634 217.329C178.764 217.469 178.96 217.59 179.222 217.693C179.483 217.795 179.814 217.893 180.216 217.987C180.598 218.071 180.953 218.173 181.28 218.295C181.616 218.416 181.91 218.561 182.162 218.729C182.414 218.897 182.61 219.107 182.75 219.359C182.899 219.611 182.974 219.909 182.974 220.255C182.974 220.693 182.857 221.067 182.624 221.375C182.4 221.683 182.073 221.921 181.644 222.089C181.214 222.257 180.701 222.341 180.104 222.341ZM185.974 222.201L183.916 214.921H185.12L186.66 221.123H186.688L188.214 214.921H189.712L191.238 221.123H191.266L192.806 214.921H193.996L191.952 222.201H190.496L188.97 216.097H188.942L187.416 222.201H185.974ZM198.694 222.341C197.481 222.341 196.543 222.014 195.88 221.361C195.227 220.707 194.9 219.774 194.9 218.561C194.9 217.385 195.203 216.461 195.81 215.789C196.426 215.117 197.275 214.781 198.358 214.781C199.394 214.781 200.187 215.098 200.738 215.733C201.289 216.358 201.564 217.259 201.564 218.435C201.564 218.528 201.564 218.626 201.564 218.729C201.564 218.831 201.559 218.92 201.55 218.995H195.502V218.099H200.738L200.528 218.393C200.528 217.487 200.346 216.811 199.982 216.363C199.618 215.915 199.077 215.691 198.358 215.691C197.593 215.691 197.005 215.933 196.594 216.419C196.183 216.895 195.978 217.576 195.978 218.463V218.743C195.978 219.629 196.202 220.297 196.65 220.745C197.107 221.183 197.775 221.403 198.652 221.403C199.053 221.403 199.469 221.361 199.898 221.277C200.337 221.193 200.729 221.081 201.074 220.941L201.242 221.837C200.887 221.995 200.486 222.117 200.038 222.201C199.59 222.294 199.142 222.341 198.694 222.341ZM206.597 222.341C205.383 222.341 204.445 222.014 203.783 221.361C203.129 220.707 202.803 219.774 202.803 218.561C202.803 217.385 203.106 216.461 203.713 215.789C204.329 215.117 205.178 214.781 206.261 214.781C207.297 214.781 208.09 215.098 208.641 215.733C209.191 216.358 209.467 217.259 209.467 218.435C209.467 218.528 209.467 218.626 209.467 218.729C209.467 218.831 209.462 218.92 209.453 218.995H203.405V218.099H208.641L208.431 218.393C208.431 217.487 208.249 216.811 207.885 216.363C207.521 215.915 206.979 215.691 206.261 215.691C205.495 215.691 204.907 215.933 204.497 216.419C204.086 216.895 203.881 217.576 203.881 218.463V218.743C203.881 219.629 204.105 220.297 204.553 220.745C205.01 221.183 205.677 221.403 206.555 221.403C206.956 221.403 207.371 221.361 207.801 221.277C208.239 221.193 208.631 221.081 208.977 220.941L209.145 221.837C208.79 221.995 208.389 222.117 207.941 222.201C207.493 222.294 207.045 222.341 206.597 222.341ZM214.047 222.341C213.254 222.341 212.68 222.173 212.325 221.837C211.98 221.491 211.807 220.927 211.807 220.143V215.859H210.029V214.921H211.807V212.541H212.913V214.921H215.615V215.859H212.913V219.863C212.913 220.423 213.011 220.815 213.207 221.039C213.403 221.253 213.753 221.361 214.257 221.361C214.481 221.361 214.696 221.342 214.901 221.305C215.116 221.267 215.317 221.216 215.503 221.151L215.629 222.103C215.349 222.187 215.079 222.247 214.817 222.285C214.565 222.322 214.309 222.341 214.047 222.341ZM222.737 222.201L220.679 214.921H221.883L223.423 221.123H223.451L224.977 214.921H226.475L228.001 221.123H228.029L229.569 214.921H230.759L228.715 222.201H227.259L225.733 216.097H225.705L224.179 222.201H222.737ZM232.306 222.201V211.981H233.412V215.901H233.44C233.72 215.537 234.08 215.261 234.518 215.075C234.957 214.879 235.461 214.781 236.03 214.781C236.926 214.781 237.58 215.019 237.99 215.495C238.41 215.971 238.616 216.713 238.606 217.721V222.201H237.514V217.917C237.524 217.161 237.384 216.605 237.094 216.251C236.805 215.896 236.357 215.719 235.75 215.719C235.293 215.719 234.887 215.812 234.532 215.999C234.187 216.176 233.916 216.423 233.72 216.741C233.524 217.049 233.422 217.413 233.412 217.833V222.201H232.306ZM240.854 213.283V211.981H242.156V213.283H240.854ZM240.952 222.201V214.921H242.072V222.201H240.952ZM247.844 222.341C247.051 222.341 246.477 222.173 246.122 221.837C245.777 221.491 245.604 220.927 245.604 220.143V215.859H243.826V214.921H245.604V212.541H246.71V214.921H249.412V215.859H246.71V219.863C246.71 220.423 246.808 220.815 247.004 221.039C247.2 221.253 247.55 221.361 248.054 221.361C248.278 221.361 248.493 221.342 248.698 221.305C248.913 221.267 249.114 221.216 249.3 221.151L249.426 222.103C249.146 222.187 248.876 222.247 248.614 222.285C248.362 222.322 248.106 222.341 247.844 222.341ZM254.27 222.341C253.057 222.341 252.119 222.014 251.456 221.361C250.803 220.707 250.476 219.774 250.476 218.561C250.476 217.385 250.78 216.461 251.386 215.789C252.002 215.117 252.852 214.781 253.934 214.781C254.97 214.781 255.764 215.098 256.314 215.733C256.865 216.358 257.14 217.259 257.14 218.435C257.14 218.528 257.14 218.626 257.14 218.729C257.14 218.831 257.136 218.92 257.126 218.995H251.078V218.099H256.314L256.104 218.393C256.104 217.487 255.922 216.811 255.558 216.363C255.194 215.915 254.653 215.691 253.934 215.691C253.169 215.691 252.581 215.933 252.17 216.419C251.76 216.895 251.554 217.576 251.554 218.463V218.743C251.554 219.629 251.778 220.297 252.226 220.745C252.684 221.183 253.351 221.403 254.228 221.403C254.63 221.403 255.045 221.361 255.474 221.277C255.913 221.193 256.305 221.081 256.65 220.941L256.818 221.837C256.464 221.995 256.062 222.117 255.614 222.201C255.166 222.294 254.718 222.341 254.27 222.341ZM179.138 237.201L177.08 229.921H178.284L179.824 236.123H179.852L181.378 229.921H182.876L184.402 236.123H184.43L185.97 229.921H187.16L185.116 237.201H183.66L182.134 231.097H182.106L180.58 237.201H179.138ZM188.833 228.283V226.981H190.135V228.283H188.833ZM188.931 237.201V229.921H190.051V237.201H188.931ZM192.617 237.201V229.921H193.695V230.901H193.723C194.003 230.537 194.367 230.261 194.815 230.075C195.263 229.879 195.771 229.781 196.341 229.781C197.218 229.781 197.867 230.019 198.287 230.495C198.707 230.971 198.917 231.713 198.917 232.721V237.201H197.825V232.917C197.825 232.161 197.68 231.605 197.391 231.251C197.111 230.896 196.667 230.719 196.061 230.719C195.603 230.719 195.197 230.812 194.843 230.999C194.497 231.176 194.222 231.423 194.017 231.741C193.821 232.049 193.723 232.408 193.723 232.819V237.201H192.617ZM204.259 237.341C203.045 237.341 202.107 237.014 201.445 236.361C200.791 235.707 200.465 234.774 200.465 233.561C200.465 232.385 200.768 231.461 201.375 230.789C201.991 230.117 202.84 229.781 203.923 229.781C204.959 229.781 205.752 230.098 206.303 230.733C206.853 231.358 207.129 232.259 207.129 233.435C207.129 233.528 207.129 233.626 207.129 233.729C207.129 233.831 207.124 233.92 207.115 233.995H201.067V233.099H206.303L206.093 233.393C206.093 232.487 205.911 231.811 205.547 231.363C205.183 230.915 204.641 230.691 203.923 230.691C203.157 230.691 202.569 230.933 202.159 231.419C201.748 231.895 201.543 232.576 201.543 233.463V233.743C201.543 234.629 201.767 235.297 202.215 235.745C202.672 236.183 203.339 236.403 204.217 236.403C204.618 236.403 205.033 236.361 205.463 236.277C205.901 236.193 206.293 236.081 206.639 235.941L206.807 236.837C206.452 236.995 206.051 237.117 205.603 237.201C205.155 237.294 204.707 237.341 204.259 237.341Z" fill="black"/>
<path d="M274.677 222.201V214.921H275.741L275.755 216.447H275.783C275.998 216.101 276.273 215.807 276.609 215.565C276.945 215.313 277.328 215.121 277.757 214.991C278.187 214.851 278.639 214.781 279.115 214.781V215.761C278.499 215.761 277.939 215.887 277.435 216.139C276.931 216.391 276.53 216.727 276.231 217.147C275.942 217.567 275.797 218.038 275.797 218.561V222.201H274.677ZM280.545 213.283V211.981H281.847V213.283H280.545ZM280.643 222.201V214.921H281.763V222.201H280.643ZM287.564 222.341C286.77 222.341 286.089 222.191 285.52 221.893C284.95 221.585 284.512 221.151 284.204 220.591C283.905 220.021 283.756 219.345 283.756 218.561C283.756 217.777 283.905 217.105 284.204 216.545C284.512 215.975 284.95 215.541 285.52 215.243C286.089 214.935 286.77 214.781 287.564 214.781C287.956 214.781 288.329 214.823 288.684 214.907C289.038 214.981 289.384 215.107 289.72 215.285L289.51 216.181C289.192 216.022 288.88 215.905 288.572 215.831C288.264 215.756 287.951 215.719 287.634 215.719C286.766 215.719 286.089 215.971 285.604 216.475C285.118 216.969 284.876 217.665 284.876 218.561C284.876 219.447 285.118 220.143 285.604 220.647C286.089 221.151 286.766 221.403 287.634 221.403C287.951 221.403 288.264 221.365 288.572 221.291C288.88 221.216 289.192 221.099 289.51 220.941L289.72 221.837C289.384 222.005 289.038 222.131 288.684 222.215C288.329 222.299 287.956 222.341 287.564 222.341ZM291.849 222.201V211.981H292.955V215.901H292.983C293.263 215.537 293.622 215.261 294.061 215.075C294.5 214.879 295.004 214.781 295.573 214.781C296.469 214.781 297.122 215.019 297.533 215.495C297.953 215.971 298.158 216.713 298.149 217.721V222.201H297.057V217.917C297.066 217.161 296.926 216.605 296.637 216.251C296.348 215.896 295.9 215.719 295.293 215.719C294.836 215.719 294.43 215.812 294.075 215.999C293.73 216.176 293.459 216.423 293.263 216.741C293.067 217.049 292.964 217.413 292.955 217.833V222.201H291.849ZM305.523 222.201L303.465 214.921H304.669L306.209 221.123H306.237L307.763 214.921H309.261L310.787 221.123H310.815L312.355 214.921H313.545L311.501 222.201H310.045L308.519 216.097H308.491L306.965 222.201H305.523ZM315.091 222.201V211.981H316.197V215.901H316.225C316.505 215.537 316.865 215.261 317.303 215.075C317.742 214.879 318.246 214.781 318.815 214.781C319.711 214.781 320.365 215.019 320.775 215.495C321.195 215.971 321.401 216.713 321.391 217.721V222.201H320.299V217.917C320.309 217.161 320.169 216.605 319.879 216.251C319.59 215.896 319.142 215.719 318.535 215.719C318.078 215.719 317.672 215.812 317.317 215.999C316.972 216.176 316.701 216.423 316.505 216.741C316.309 217.049 316.207 217.413 316.197 217.833V222.201H315.091ZM323.639 213.283V211.981H324.941V213.283H323.639ZM323.737 222.201V214.921H324.857V222.201H323.737ZM330.629 222.341C329.836 222.341 329.262 222.173 328.907 221.837C328.562 221.491 328.389 220.927 328.389 220.143V215.859H326.611V214.921H328.389V212.541H329.495V214.921H332.197V215.859H329.495V219.863C329.495 220.423 329.593 220.815 329.789 221.039C329.985 221.253 330.335 221.361 330.839 221.361C331.063 221.361 331.278 221.342 331.483 221.305C331.698 221.267 331.899 221.216 332.085 221.151L332.211 222.103C331.931 222.187 331.661 222.247 331.399 222.285C331.147 222.322 330.891 222.341 330.629 222.341ZM337.055 222.341C335.842 222.341 334.904 222.014 334.241 221.361C333.588 220.707 333.261 219.774 333.261 218.561C333.261 217.385 333.565 216.461 334.171 215.789C334.787 215.117 335.637 214.781 336.719 214.781C337.755 214.781 338.549 215.098 339.099 215.733C339.65 216.358 339.925 217.259 339.925 218.435C339.925 218.528 339.925 218.626 339.925 218.729C339.925 218.831 339.921 218.92 339.911 218.995H333.863V218.099H339.099L338.889 218.393C338.889 217.487 338.707 216.811 338.343 216.363C337.979 215.915 337.438 215.691 336.719 215.691C335.954 215.691 335.366 215.933 334.955 216.419C334.545 216.895 334.339 217.576 334.339 218.463V218.743C334.339 219.629 334.563 220.297 335.011 220.745C335.469 221.183 336.136 221.403 337.013 221.403C337.415 221.403 337.83 221.361 338.259 221.277C338.698 221.193 339.09 221.081 339.435 220.941L339.603 221.837C339.249 221.995 338.847 222.117 338.399 222.201C337.951 222.294 337.503 222.341 337.055 222.341ZM275.909 237.201L273.851 229.921H275.055L276.595 236.123H276.623L278.149 229.921H279.647L281.173 236.123H281.201L282.741 229.921H283.931L281.887 237.201H280.431L278.905 231.097H278.877L277.351 237.201H275.909ZM285.604 228.283V226.981H286.906V228.283H285.604ZM285.702 237.201V229.921H286.822V237.201H285.702ZM289.388 237.201V229.921H290.466V230.901H290.494C290.774 230.537 291.138 230.261 291.586 230.075C292.034 229.879 292.543 229.781 293.112 229.781C293.99 229.781 294.638 230.019 295.058 230.495C295.478 230.971 295.688 231.713 295.688 232.721V237.201H294.596V232.917C294.596 232.161 294.452 231.605 294.162 231.251C293.882 230.896 293.439 230.719 292.832 230.719C292.375 230.719 291.969 230.812 291.614 230.999C291.269 231.176 290.994 231.423 290.788 231.741C290.592 232.049 290.494 232.408 290.494 232.819V237.201H289.388ZM301.03 237.341C299.817 237.341 298.879 237.014 298.216 236.361C297.563 235.707 297.236 234.774 297.236 233.561C297.236 232.385 297.539 231.461 298.146 230.789C298.762 230.117 299.611 229.781 300.694 229.781C301.73 229.781 302.523 230.098 303.074 230.733C303.625 231.358 303.9 232.259 303.9 233.435C303.9 233.528 303.9 233.626 303.9 233.729C303.9 233.831 303.895 233.92 303.886 233.995H297.838V233.099H303.074L302.864 233.393C302.864 232.487 302.682 231.811 302.318 231.363C301.954 230.915 301.413 230.691 300.694 230.691C299.929 230.691 299.341 230.933 298.93 231.419C298.519 231.895 298.314 232.576 298.314 233.463V233.743C298.314 234.629 298.538 235.297 298.986 235.745C299.443 236.183 300.111 236.403 300.988 236.403C301.389 236.403 301.805 236.361 302.234 236.277C302.673 236.193 303.065 236.081 303.41 235.941L303.578 236.837C303.223 236.995 302.822 237.117 302.374 237.201C301.926 237.294 301.478 237.341 301.03 237.341Z" fill="black"/>
<path d="M369.35 222.201V211.981H370.47V222.201H369.35ZM373.042 213.283V211.981H374.344V213.283H373.042ZM373.14 222.201V214.921H374.26V222.201H373.14ZM379.388 225.281C378.837 225.281 378.314 225.225 377.82 225.113C377.334 225.001 376.914 224.837 376.56 224.623L376.756 223.727C377.092 223.923 377.479 224.072 377.918 224.175C378.366 224.287 378.823 224.343 379.29 224.343C380.214 224.343 380.872 224.119 381.264 223.671C381.665 223.232 381.866 222.509 381.866 221.501V220.857H381.838C381.586 221.183 381.24 221.445 380.802 221.641C380.363 221.827 379.878 221.921 379.346 221.921C378.375 221.921 377.614 221.608 377.064 220.983C376.513 220.348 376.238 219.471 376.238 218.351C376.238 217.231 376.513 216.358 377.064 215.733C377.614 215.098 378.375 214.781 379.346 214.781C379.878 214.781 380.368 214.879 380.816 215.075C381.264 215.261 381.614 215.518 381.866 215.845H381.894L381.908 214.921H382.958V221.501C382.958 222.807 382.668 223.764 382.09 224.371C381.52 224.977 380.62 225.281 379.388 225.281ZM379.584 220.983C380.022 220.983 380.41 220.903 380.746 220.745C381.091 220.577 381.362 220.353 381.558 220.073C381.763 219.783 381.866 219.452 381.866 219.079V217.623C381.866 217.259 381.763 216.932 381.558 216.643C381.362 216.353 381.091 216.129 380.746 215.971C380.41 215.803 380.022 215.719 379.584 215.719C378.874 215.719 378.319 215.947 377.918 216.405C377.526 216.862 377.33 217.511 377.33 218.351C377.33 219.191 377.526 219.839 377.918 220.297C378.319 220.754 378.874 220.983 379.584 220.983ZM385.33 222.201V211.981H386.436V215.901H386.464C386.744 215.537 387.103 215.261 387.542 215.075C387.98 214.879 388.484 214.781 389.054 214.781C389.95 214.781 390.603 215.019 391.014 215.495C391.434 215.971 391.639 216.713 391.63 217.721V222.201H390.538V217.917C390.547 217.161 390.407 216.605 390.118 216.251C389.828 215.896 389.38 215.719 388.774 215.719C388.316 215.719 387.91 215.812 387.556 215.999C387.21 216.176 386.94 216.423 386.744 216.741C386.548 217.049 386.445 217.413 386.436 217.833V222.201H385.33ZM396.602 222.341C395.809 222.341 395.235 222.173 394.88 221.837C394.535 221.491 394.362 220.927 394.362 220.143V215.859H392.584V214.921H394.362V212.541H395.468V214.921H398.17V215.859H395.468V219.863C395.468 220.423 395.566 220.815 395.762 221.039C395.958 221.253 396.308 221.361 396.812 221.361C397.036 221.361 397.251 221.342 397.456 221.305C397.671 221.267 397.871 221.216 398.058 221.151L398.184 222.103C397.904 222.187 397.633 222.247 397.372 222.285C397.12 222.322 396.863 222.341 396.602 222.341ZM404.06 222.201V214.921H405.124L405.138 216.447H405.166C405.381 216.101 405.656 215.807 405.992 215.565C406.328 215.313 406.711 215.121 407.14 214.991C407.569 214.851 408.022 214.781 408.498 214.781V215.761C407.882 215.761 407.322 215.887 406.818 216.139C406.314 216.391 405.913 216.727 405.614 217.147C405.325 217.567 405.18 218.038 405.18 218.561V222.201H404.06ZM412.598 222.341C411.385 222.341 410.447 222.014 409.784 221.361C409.131 220.707 408.804 219.774 408.804 218.561C408.804 217.385 409.108 216.461 409.714 215.789C410.33 215.117 411.18 214.781 412.262 214.781C413.298 214.781 414.092 215.098 414.642 215.733C415.193 216.358 415.468 217.259 415.468 218.435C415.468 218.528 415.468 218.626 415.468 218.729C415.468 218.831 415.464 218.92 415.454 218.995H409.406V218.099H414.642L414.432 218.393C414.432 217.487 414.25 216.811 413.886 216.363C413.522 215.915 412.981 215.691 412.262 215.691C411.497 215.691 410.909 215.933 410.498 216.419C410.088 216.895 409.882 217.576 409.882 218.463V218.743C409.882 219.629 410.106 220.297 410.554 220.745C411.012 221.183 411.679 221.403 412.556 221.403C412.958 221.403 413.373 221.361 413.802 221.277C414.241 221.193 414.633 221.081 414.978 220.941L415.146 221.837C414.792 221.995 414.39 222.117 413.942 222.201C413.494 222.294 413.046 222.341 412.598 222.341ZM419.801 222.341C418.821 222.341 418.055 222.009 417.505 221.347C416.963 220.675 416.693 219.746 416.693 218.561C416.693 217.375 416.963 216.451 417.505 215.789C418.055 215.117 418.821 214.781 419.801 214.781C420.323 214.781 420.809 214.879 421.257 215.075C421.705 215.271 422.05 215.546 422.293 215.901H422.321V211.981H423.413V222.201H422.377L422.363 221.221H422.335C422.083 221.566 421.728 221.841 421.271 222.047C420.813 222.243 420.323 222.341 419.801 222.341ZM420.025 221.403C420.473 221.403 420.865 221.314 421.201 221.137C421.546 220.95 421.817 220.698 422.013 220.381C422.218 220.063 422.321 219.699 422.321 219.289V217.833C422.321 217.422 422.218 217.058 422.013 216.741C421.817 216.423 421.546 216.176 421.201 215.999C420.865 215.812 420.473 215.719 420.025 215.719C419.325 215.719 418.774 215.966 418.373 216.461C417.981 216.946 417.785 217.646 417.785 218.561C417.785 219.475 417.981 220.18 418.373 220.675C418.774 221.16 419.325 221.403 420.025 221.403ZM370.456 237.201L368.398 229.921H369.602L371.142 236.123H371.17L372.696 229.921H374.194L375.72 236.123H375.748L377.288 229.921H378.478L376.434 237.201H374.978L373.452 231.097H373.424L371.898 237.201H370.456ZM380.151 228.283V226.981H381.453V228.283H380.151ZM380.249 237.201V229.921H381.369V237.201H380.249ZM383.935 237.201V229.921H385.013V230.901H385.041C385.321 230.537 385.685 230.261 386.133 230.075C386.581 229.879 387.09 229.781 387.659 229.781C388.536 229.781 389.185 230.019 389.605 230.495C390.025 230.971 390.235 231.713 390.235 232.721V237.201H389.143V232.917C389.143 232.161 388.998 231.605 388.709 231.251C388.429 230.896 387.986 230.719 387.379 230.719C386.922 230.719 386.516 230.812 386.161 230.999C385.816 231.176 385.54 231.423 385.335 231.741C385.139 232.049 385.041 232.408 385.041 232.819V237.201H383.935ZM395.577 237.341C394.364 237.341 393.426 237.014 392.763 236.361C392.11 235.707 391.783 234.774 391.783 233.561C391.783 232.385 392.086 231.461 392.693 230.789C393.309 230.117 394.158 229.781 395.241 229.781C396.277 229.781 397.07 230.098 397.621 230.733C398.172 231.358 398.447 232.259 398.447 233.435C398.447 233.528 398.447 233.626 398.447 233.729C398.447 233.831 398.442 233.92 398.433 233.995H392.385V233.099H397.621L397.411 233.393C397.411 232.487 397.229 231.811 396.865 231.363C396.501 230.915 395.96 230.691 395.241 230.691C394.476 230.691 393.888 230.933 393.477 231.419C393.066 231.895 392.861 232.576 392.861 233.463V233.743C392.861 234.629 393.085 235.297 393.533 235.745C393.99 236.183 394.658 236.403 395.535 236.403C395.936 236.403 396.352 236.361 396.781 236.277C397.22 236.193 397.612 236.081 397.957 235.941L398.125 236.837C397.77 236.995 397.369 237.117 396.921 237.201C396.473 237.294 396.025 237.341 395.577 237.341Z" fill="black"/>
<path d="M451.535 222.201V214.921H452.585V215.901H452.613C452.865 215.565 453.187 215.294 453.579 215.089C453.981 214.883 454.438 214.781 454.951 214.781C455.465 214.781 455.894 214.879 456.239 215.075C456.585 215.261 456.818 215.537 456.939 215.901H456.967C457.238 215.527 457.569 215.247 457.961 215.061C458.363 214.874 458.825 214.781 459.347 214.781C460.131 214.781 460.696 215 461.041 215.439C461.396 215.868 461.573 216.559 461.573 217.511V222.201H460.495V217.749C460.495 217.03 460.379 216.512 460.145 216.195C459.921 215.877 459.553 215.719 459.039 215.719C458.461 215.719 457.994 215.91 457.639 216.293C457.285 216.675 457.107 217.184 457.107 217.819V222.201H456.015V217.441C456.015 216.881 455.889 216.456 455.637 216.167C455.385 215.868 455.026 215.719 454.559 215.719C454.195 215.719 453.864 215.817 453.565 216.013C453.276 216.209 453.043 216.47 452.865 216.797C452.697 217.114 452.613 217.455 452.613 217.819V222.201H451.535ZM466.923 222.341C465.71 222.341 464.772 222.014 464.109 221.361C463.456 220.707 463.129 219.774 463.129 218.561C463.129 217.385 463.433 216.461 464.039 215.789C464.655 215.117 465.505 214.781 466.587 214.781C467.623 214.781 468.417 215.098 468.967 215.733C469.518 216.358 469.793 217.259 469.793 218.435C469.793 218.528 469.793 218.626 469.793 218.729C469.793 218.831 469.789 218.92 469.779 218.995H463.731V218.099H468.967L468.757 218.393C468.757 217.487 468.575 216.811 468.211 216.363C467.847 215.915 467.306 215.691 466.587 215.691C465.822 215.691 465.234 215.933 464.823 216.419C464.413 216.895 464.207 217.576 464.207 218.463V218.743C464.207 219.629 464.431 220.297 464.879 220.745C465.337 221.183 466.004 221.403 466.881 221.403C467.283 221.403 467.698 221.361 468.127 221.277C468.566 221.193 468.958 221.081 469.303 220.941L469.471 221.837C469.117 221.995 468.715 222.117 468.267 222.201C467.819 222.294 467.371 222.341 466.923 222.341ZM474.126 222.341C473.146 222.341 472.38 222.009 471.83 221.347C471.288 220.675 471.018 219.746 471.018 218.561C471.018 217.375 471.288 216.451 471.83 215.789C472.38 215.117 473.146 214.781 474.126 214.781C474.648 214.781 475.134 214.879 475.582 215.075C476.03 215.271 476.375 215.546 476.618 215.901H476.646V211.981H477.738V222.201H476.702L476.688 221.221H476.66C476.408 221.566 476.053 221.841 475.596 222.047C475.138 222.243 474.648 222.341 474.126 222.341ZM474.35 221.403C474.798 221.403 475.19 221.314 475.526 221.137C475.871 220.95 476.142 220.698 476.338 220.381C476.543 220.063 476.646 219.699 476.646 219.289V217.833C476.646 217.422 476.543 217.058 476.338 216.741C476.142 216.423 475.871 216.176 475.526 215.999C475.19 215.812 474.798 215.719 474.35 215.719C473.65 215.719 473.099 215.966 472.698 216.461C472.306 216.946 472.11 217.646 472.11 218.561C472.11 219.475 472.306 220.18 472.698 220.675C473.099 221.16 473.65 221.403 474.35 221.403ZM480.236 213.283V211.981H481.538V213.283H480.236ZM480.334 222.201V214.921H481.454V222.201H480.334ZM486.316 222.341C485.448 222.341 484.809 222.103 484.398 221.627C483.997 221.141 483.796 220.399 483.796 219.401V214.921H484.902V219.205C484.902 219.961 485.037 220.516 485.308 220.871C485.579 221.225 486.003 221.403 486.582 221.403C487.03 221.403 487.422 221.314 487.758 221.137C488.103 220.95 488.369 220.703 488.556 220.395C488.752 220.077 488.85 219.713 488.85 219.303V214.921H489.956V222.201H488.892L488.878 221.221H488.85C488.579 221.585 488.229 221.865 487.8 222.061C487.371 222.247 486.876 222.341 486.316 222.341ZM492.305 222.201V214.921H493.355V215.901H493.383C493.635 215.565 493.957 215.294 494.349 215.089C494.75 214.883 495.208 214.781 495.721 214.781C496.234 214.781 496.664 214.879 497.009 215.075C497.354 215.261 497.588 215.537 497.709 215.901H497.737C498.008 215.527 498.339 215.247 498.731 215.061C499.132 214.874 499.594 214.781 500.117 214.781C500.901 214.781 501.466 215 501.811 215.439C502.166 215.868 502.343 216.559 502.343 217.511V222.201H501.265V217.749C501.265 217.03 501.148 216.512 500.915 216.195C500.691 215.877 500.322 215.719 499.809 215.719C499.23 215.719 498.764 215.91 498.409 216.293C498.054 216.675 497.877 217.184 497.877 217.819V222.201H496.785V217.441C496.785 216.881 496.659 216.456 496.407 216.167C496.155 215.868 495.796 215.719 495.329 215.719C494.965 215.719 494.634 215.817 494.335 216.013C494.046 216.209 493.812 216.47 493.635 216.797C493.467 217.114 493.383 217.455 493.383 217.819V222.201H492.305ZM508.492 222.201V214.921H509.556L509.57 216.447H509.598C509.813 216.101 510.088 215.807 510.424 215.565C510.76 215.313 511.143 215.121 511.572 214.991C512.002 214.851 512.454 214.781 512.93 214.781V215.761C512.314 215.761 511.754 215.887 511.25 216.139C510.746 216.391 510.345 216.727 510.046 217.147C509.757 217.567 509.612 218.038 509.612 218.561V222.201H508.492ZM517.031 222.341C515.818 222.341 514.88 222.014 514.217 221.361C513.564 220.707 513.237 219.774 513.237 218.561C513.237 217.385 513.54 216.461 514.147 215.789C514.763 215.117 515.612 214.781 516.695 214.781C517.731 214.781 518.524 215.098 519.075 215.733C519.626 216.358 519.901 217.259 519.901 218.435C519.901 218.528 519.901 218.626 519.901 218.729C519.901 218.831 519.896 218.92 519.887 218.995H513.839V218.099H519.075L518.865 218.393C518.865 217.487 518.683 216.811 518.319 216.363C517.955 215.915 517.414 215.691 516.695 215.691C515.93 215.691 515.342 215.933 514.931 216.419C514.52 216.895 514.315 217.576 514.315 218.463V218.743C514.315 219.629 514.539 220.297 514.987 220.745C515.444 221.183 516.112 221.403 516.989 221.403C517.39 221.403 517.806 221.361 518.235 221.277C518.674 221.193 519.066 221.081 519.411 220.941L519.579 221.837C519.224 221.995 518.823 222.117 518.375 222.201C517.927 222.294 517.479 222.341 517.031 222.341ZM524.233 222.341C523.253 222.341 522.488 222.009 521.937 221.347C521.396 220.675 521.125 219.746 521.125 218.561C521.125 217.375 521.396 216.451 521.937 215.789C522.488 215.117 523.253 214.781 524.233 214.781C524.756 214.781 525.241 214.879 525.689 215.075C526.137 215.271 526.483 215.546 526.725 215.901H526.753V211.981H527.845V222.201H526.809L526.795 221.221H526.767C526.515 221.566 526.161 221.841 525.703 222.047C525.246 222.243 524.756 222.341 524.233 222.341ZM524.457 221.403C524.905 221.403 525.297 221.314 525.633 221.137C525.979 220.95 526.249 220.698 526.445 220.381C526.651 220.063 526.753 219.699 526.753 219.289V217.833C526.753 217.422 526.651 217.058 526.445 216.741C526.249 216.423 525.979 216.176 525.633 215.999C525.297 215.812 524.905 215.719 524.457 215.719C523.757 215.719 523.207 215.966 522.805 216.461C522.413 216.946 522.217 217.646 522.217 218.561C522.217 219.475 522.413 220.18 522.805 220.675C523.207 221.16 523.757 221.403 524.457 221.403ZM452.767 237.201L450.709 229.921H451.913L453.453 236.123H453.481L455.007 229.921H456.505L458.031 236.123H458.059L459.599 229.921H460.789L458.745 237.201H457.289L455.763 231.097H455.735L454.209 237.201H452.767ZM462.462 228.283V226.981H463.764V228.283H462.462ZM462.56 237.201V229.921H463.68V237.201H462.56ZM466.246 237.201V229.921H467.324V230.901H467.352C467.632 230.537 467.996 230.261 468.444 230.075C468.892 229.879 469.401 229.781 469.97 229.781C470.848 229.781 471.496 230.019 471.916 230.495C472.336 230.971 472.546 231.713 472.546 232.721V237.201H471.454V232.917C471.454 232.161 471.31 231.605 471.02 231.251C470.74 230.896 470.297 230.719 469.69 230.719C469.233 230.719 468.827 230.812 468.472 230.999C468.127 231.176 467.852 231.423 467.646 231.741C467.45 232.049 467.352 232.408 467.352 232.819V237.201H466.246ZM477.888 237.341C476.675 237.341 475.737 237.014 475.074 236.361C474.421 235.707 474.094 234.774 474.094 233.561C474.094 232.385 474.398 231.461 475.004 230.789C475.62 230.117 476.47 229.781 477.552 229.781C478.588 229.781 479.382 230.098 479.932 230.733C480.483 231.358 480.758 232.259 480.758 233.435C480.758 233.528 480.758 233.626 480.758 233.729C480.758 233.831 480.754 233.92 480.744 233.995H474.696V233.099H479.932L479.722 233.393C479.722 232.487 479.54 231.811 479.176 231.363C478.812 230.915 478.271 230.691 477.552 230.691C476.787 230.691 476.199 230.933 475.788 231.419C475.378 231.895 475.172 232.576 475.172 233.463V233.743C475.172 234.629 475.396 235.297 475.844 235.745C476.302 236.183 476.969 236.403 477.846 236.403C478.248 236.403 478.663 236.361 479.092 236.277C479.531 236.193 479.923 236.081 480.268 235.941L480.436 236.837C480.082 236.995 479.68 237.117 479.232 237.201C478.784 237.294 478.336 237.341 477.888 237.341Z" fill="black"/>
<path d="M556.396 222.341C555.864 222.341 555.37 222.243 554.912 222.047C554.464 221.841 554.11 221.566 553.848 221.221H553.82V222.201H552.756V211.981H553.862V215.901H553.89C554.142 215.546 554.488 215.271 554.926 215.075C555.374 214.879 555.864 214.781 556.396 214.781C557.367 214.781 558.123 215.117 558.664 215.789C559.206 216.451 559.476 217.375 559.476 218.561C559.476 219.746 559.206 220.675 558.664 221.347C558.123 222.009 557.367 222.341 556.396 222.341ZM556.158 221.403C556.877 221.403 557.428 221.16 557.81 220.675C558.202 220.18 558.398 219.475 558.398 218.561C558.398 217.646 558.202 216.946 557.81 216.461C557.428 215.966 556.877 215.719 556.158 215.719C555.72 215.719 555.328 215.812 554.982 215.999C554.637 216.176 554.362 216.423 554.156 216.741C553.96 217.049 553.862 217.413 553.862 217.833V219.289C553.862 219.699 553.96 220.063 554.156 220.381C554.362 220.698 554.637 220.95 554.982 221.137C555.328 221.314 555.72 221.403 556.158 221.403ZM564.296 222.341C563.176 222.341 562.304 222.009 561.678 221.347C561.062 220.684 560.754 219.755 560.754 218.561C560.754 217.366 561.062 216.437 561.678 215.775C562.304 215.112 563.176 214.781 564.296 214.781C565.416 214.781 566.284 215.112 566.9 215.775C567.526 216.437 567.838 217.366 567.838 218.561C567.838 219.755 567.526 220.684 566.9 221.347C566.284 222.009 565.416 222.341 564.296 222.341ZM564.296 221.403C565.08 221.403 565.682 221.16 566.102 220.675C566.532 220.18 566.746 219.475 566.746 218.561C566.746 217.646 566.532 216.946 566.102 216.461C565.682 215.966 565.08 215.719 564.296 215.719C563.522 215.719 562.92 215.966 562.49 216.461C562.061 216.946 561.846 217.646 561.846 218.561C561.846 219.475 562.061 220.18 562.49 220.675C562.92 221.16 563.522 221.403 564.296 221.403ZM569.74 222.201V211.981H570.86V222.201H569.74ZM575.852 222.341C574.872 222.341 574.107 222.009 573.556 221.347C573.015 220.675 572.744 219.746 572.744 218.561C572.744 217.375 573.015 216.451 573.556 215.789C574.107 215.117 574.872 214.781 575.852 214.781C576.375 214.781 576.86 214.879 577.308 215.075C577.756 215.271 578.102 215.546 578.344 215.901H578.372V211.981H579.464V222.201H578.428L578.414 221.221H578.386C578.134 221.566 577.78 221.841 577.322 222.047C576.865 222.243 576.375 222.341 575.852 222.341ZM576.076 221.403C576.524 221.403 576.916 221.314 577.252 221.137C577.598 220.95 577.868 220.698 578.064 220.381C578.27 220.063 578.372 219.699 578.372 219.289V217.833C578.372 217.422 578.27 217.058 578.064 216.741C577.868 216.423 577.598 216.176 577.252 215.999C576.916 215.812 576.524 215.719 576.076 215.719C575.376 215.719 574.826 215.966 574.424 216.461C574.032 216.946 573.836 217.646 573.836 218.561C573.836 219.475 574.032 220.18 574.424 220.675C574.826 221.16 575.376 221.403 576.076 221.403ZM585.856 222.201V214.921H586.92L586.934 216.447H586.962C587.176 216.101 587.452 215.807 587.788 215.565C588.124 215.313 588.506 215.121 588.936 214.991C589.365 214.851 589.818 214.781 590.294 214.781V215.761C589.678 215.761 589.118 215.887 588.614 216.139C588.11 216.391 587.708 216.727 587.41 217.147C587.12 217.567 586.976 218.038 586.976 218.561V222.201H585.856ZM594.394 222.341C593.181 222.341 592.243 222.014 591.58 221.361C590.927 220.707 590.6 219.774 590.6 218.561C590.6 217.385 590.904 216.461 591.51 215.789C592.126 215.117 592.976 214.781 594.058 214.781C595.094 214.781 595.888 215.098 596.438 215.733C596.989 216.358 597.264 217.259 597.264 218.435C597.264 218.528 597.264 218.626 597.264 218.729C597.264 218.831 597.26 218.92 597.25 218.995H591.202V218.099H596.438L596.228 218.393C596.228 217.487 596.046 216.811 595.682 216.363C595.318 215.915 594.777 215.691 594.058 215.691C593.293 215.691 592.705 215.933 592.294 216.419C591.884 216.895 591.678 217.576 591.678 218.463V218.743C591.678 219.629 591.902 220.297 592.35 220.745C592.808 221.183 593.475 221.403 594.352 221.403C594.754 221.403 595.169 221.361 595.598 221.277C596.037 221.193 596.429 221.081 596.774 220.941L596.942 221.837C596.588 221.995 596.186 222.117 595.738 222.201C595.29 222.294 594.842 222.341 594.394 222.341ZM601.597 222.341C600.617 222.341 599.851 222.009 599.301 221.347C598.759 220.675 598.489 219.746 598.489 218.561C598.489 217.375 598.759 216.451 599.301 215.789C599.851 215.117 600.617 214.781 601.597 214.781C602.119 214.781 602.605 214.879 603.053 215.075C603.501 215.271 603.846 215.546 604.089 215.901H604.117V211.981H605.209V222.201H604.173L604.159 221.221H604.131C603.879 221.566 603.524 221.841 603.067 222.047C602.609 222.243 602.119 222.341 601.597 222.341ZM601.821 221.403C602.269 221.403 602.661 221.314 602.997 221.137C603.342 220.95 603.613 220.698 603.809 220.381C604.014 220.063 604.117 219.699 604.117 219.289V217.833C604.117 217.422 604.014 217.058 603.809 216.741C603.613 216.423 603.342 216.176 602.997 215.999C602.661 215.812 602.269 215.719 601.821 215.719C601.121 215.719 600.57 215.966 600.169 216.461C599.777 216.946 599.581 217.646 599.581 218.561C599.581 219.475 599.777 220.18 600.169 220.675C600.57 221.16 601.121 221.403 601.821 221.403ZM553.988 237.201L551.93 229.921H553.134L554.674 236.123H554.702L556.228 229.921H557.726L559.252 236.123H559.28L560.82 229.921H562.01L559.966 237.201H558.51L556.984 231.097H556.956L555.43 237.201H553.988ZM563.683 228.283V226.981H564.985V228.283H563.683ZM563.781 237.201V229.921H564.901V237.201H563.781ZM567.467 237.201V229.921H568.545V230.901H568.573C568.853 230.537 569.217 230.261 569.665 230.075C570.113 229.879 570.622 229.781 571.191 229.781C572.068 229.781 572.717 230.019 573.137 230.495C573.557 230.971 573.767 231.713 573.767 232.721V237.201H572.675V232.917C572.675 232.161 572.53 231.605 572.241 231.251C571.961 230.896 571.518 230.719 570.911 230.719C570.454 230.719 570.048 230.812 569.693 230.999C569.348 231.176 569.072 231.423 568.867 231.741C568.671 232.049 568.573 232.408 568.573 232.819V237.201H567.467ZM579.109 237.341C577.896 237.341 576.958 237.014 576.295 236.361C575.642 235.707 575.315 234.774 575.315 233.561C575.315 232.385 575.618 231.461 576.225 230.789C576.841 230.117 577.69 229.781 578.773 229.781C579.809 229.781 580.602 230.098 581.153 230.733C581.704 231.358 581.979 232.259 581.979 233.435C581.979 233.528 581.979 233.626 581.979 233.729C581.979 233.831 581.974 233.92 581.965 233.995H575.917V233.099H581.153L580.943 233.393C580.943 232.487 580.761 231.811 580.397 231.363C580.033 230.915 579.492 230.691 578.773 230.691C578.008 230.691 577.42 230.933 577.009 231.419C576.598 231.895 576.393 232.576 576.393 233.463V233.743C576.393 234.629 576.617 235.297 577.065 235.745C577.522 236.183 578.19 236.403 579.067 236.403C579.468 236.403 579.884 236.361 580.313 236.277C580.752 236.193 581.144 236.081 581.489 235.941L581.657 236.837C581.302 236.995 580.901 237.117 580.453 237.201C580.005 237.294 579.557 237.341 579.109 237.341Z" fill="black"/>
<path d="M649.823 222.341C648.843 222.341 648.078 222.009 647.527 221.347C646.986 220.675 646.715 219.746 646.715 218.561C646.715 217.375 646.986 216.451 647.527 215.789C648.078 215.117 648.843 214.781 649.823 214.781C650.346 214.781 650.831 214.879 651.279 215.075C651.727 215.271 652.072 215.546 652.315 215.901H652.343V211.981H653.435V222.201H652.399L652.385 221.221H652.357C652.105 221.566 651.75 221.841 651.293 222.047C650.836 222.243 650.346 222.341 649.823 222.341ZM650.047 221.403C650.495 221.403 650.887 221.314 651.223 221.137C651.568 220.95 651.839 220.698 652.035 220.381C652.24 220.063 652.343 219.699 652.343 219.289V217.833C652.343 217.422 652.24 217.058 652.035 216.741C651.839 216.423 651.568 216.176 651.223 215.999C650.887 215.812 650.495 215.719 650.047 215.719C649.347 215.719 648.796 215.966 648.395 216.461C648.003 216.946 647.807 217.646 647.807 218.561C647.807 219.475 648.003 220.18 648.395 220.675C648.796 221.16 649.347 221.403 650.047 221.403ZM659.027 222.341C657.814 222.341 656.876 222.014 656.213 221.361C655.56 220.707 655.233 219.774 655.233 218.561C655.233 217.385 655.536 216.461 656.143 215.789C656.759 215.117 657.608 214.781 658.691 214.781C659.727 214.781 660.52 215.098 661.071 215.733C661.622 216.358 661.897 217.259 661.897 218.435C661.897 218.528 661.897 218.626 661.897 218.729C661.897 218.831 661.892 218.92 661.883 218.995H655.835V218.099H661.071L660.861 218.393C660.861 217.487 660.679 216.811 660.315 216.363C659.951 215.915 659.41 215.691 658.691 215.691C657.926 215.691 657.338 215.933 656.927 216.419C656.516 216.895 656.311 217.576 656.311 218.463V218.743C656.311 219.629 656.535 220.297 656.983 220.745C657.44 221.183 658.108 221.403 658.985 221.403C659.386 221.403 659.802 221.361 660.231 221.277C660.67 221.193 661.062 221.081 661.407 220.941L661.575 221.837C661.22 221.995 660.819 222.117 660.371 222.201C659.923 222.294 659.475 222.341 659.027 222.341ZM665.839 222.341C665.522 222.341 665.195 222.317 664.859 222.271C664.523 222.233 664.201 222.177 663.893 222.103C663.594 222.019 663.328 221.925 663.095 221.823L663.277 220.927C663.65 221.067 664.047 221.183 664.467 221.277C664.896 221.361 665.316 221.403 665.727 221.403C666.343 221.403 666.81 221.305 667.127 221.109C667.444 220.913 667.603 220.619 667.603 220.227C667.603 219.975 667.533 219.774 667.393 219.625C667.253 219.466 667.043 219.335 666.763 219.233C666.492 219.121 666.147 219.018 665.727 218.925C665.223 218.794 664.766 218.645 664.355 218.477C663.954 218.309 663.636 218.089 663.403 217.819C663.179 217.539 663.067 217.179 663.067 216.741C663.067 216.106 663.31 215.621 663.795 215.285C664.29 214.949 664.999 214.781 665.923 214.781C666.362 214.781 666.805 214.818 667.253 214.893C667.71 214.967 668.116 215.075 668.471 215.215L668.275 216.125C667.948 215.985 667.594 215.882 667.211 215.817C666.828 215.751 666.441 215.719 666.049 215.719C665.424 215.719 664.952 215.807 664.635 215.985C664.327 216.162 664.173 216.423 664.173 216.769C664.173 217.002 664.238 217.189 664.369 217.329C664.5 217.469 664.696 217.59 664.957 217.693C665.218 217.795 665.55 217.893 665.951 217.987C666.334 218.071 666.688 218.173 667.015 218.295C667.351 218.416 667.645 218.561 667.897 218.729C668.149 218.897 668.345 219.107 668.485 219.359C668.634 219.611 668.709 219.909 668.709 220.255C668.709 220.693 668.592 221.067 668.359 221.375C668.135 221.683 667.808 221.921 667.379 222.089C666.95 222.257 666.436 222.341 665.839 222.341ZM672.538 222.341C672.221 222.341 671.894 222.317 671.558 222.271C671.222 222.233 670.9 222.177 670.592 222.103C670.294 222.019 670.028 221.925 669.794 221.823L669.976 220.927C670.35 221.067 670.746 221.183 671.166 221.277C671.596 221.361 672.016 221.403 672.426 221.403C673.042 221.403 673.509 221.305 673.826 221.109C674.144 220.913 674.302 220.619 674.302 220.227C674.302 219.975 674.232 219.774 674.092 219.625C673.952 219.466 673.742 219.335 673.462 219.233C673.192 219.121 672.846 219.018 672.426 218.925C671.922 218.794 671.465 218.645 671.054 218.477C670.653 218.309 670.336 218.089 670.102 217.819C669.878 217.539 669.766 217.179 669.766 216.741C669.766 216.106 670.009 215.621 670.494 215.285C670.989 214.949 671.698 214.781 672.622 214.781C673.061 214.781 673.504 214.818 673.952 214.893C674.41 214.967 674.816 215.075 675.17 215.215L674.974 216.125C674.648 215.985 674.293 215.882 673.91 215.817C673.528 215.751 673.14 215.719 672.748 215.719C672.123 215.719 671.652 215.807 671.334 215.985C671.026 216.162 670.872 216.423 670.872 216.769C670.872 217.002 670.938 217.189 671.068 217.329C671.199 217.469 671.395 217.59 671.656 217.693C671.918 217.795 672.249 217.893 672.65 217.987C673.033 218.071 673.388 218.173 673.714 218.295C674.05 218.416 674.344 218.561 674.596 218.729C674.848 218.897 675.044 219.107 675.184 219.359C675.334 219.611 675.408 219.909 675.408 220.255C675.408 220.693 675.292 221.067 675.058 221.375C674.834 221.683 674.508 221.921 674.078 222.089C673.649 222.257 673.136 222.341 672.538 222.341ZM680.396 222.341C679.183 222.341 678.245 222.014 677.582 221.361C676.929 220.707 676.602 219.774 676.602 218.561C676.602 217.385 676.905 216.461 677.512 215.789C678.128 215.117 678.977 214.781 680.06 214.781C681.096 214.781 681.889 215.098 682.44 215.733C682.991 216.358 683.266 217.259 683.266 218.435C683.266 218.528 683.266 218.626 683.266 218.729C683.266 218.831 683.261 218.92 683.252 218.995H677.204V218.099H682.44L682.23 218.393C682.23 217.487 682.048 216.811 681.684 216.363C681.32 215.915 680.779 215.691 680.06 215.691C679.295 215.691 678.707 215.933 678.296 216.419C677.885 216.895 677.68 217.576 677.68 218.463V218.743C677.68 219.629 677.904 220.297 678.352 220.745C678.809 221.183 679.477 221.403 680.354 221.403C680.755 221.403 681.171 221.361 681.6 221.277C682.039 221.193 682.431 221.081 682.776 220.941L682.944 221.837C682.589 221.995 682.188 222.117 681.74 222.201C681.292 222.294 680.844 222.341 680.396 222.341ZM685.01 222.201V214.921H686.074L686.088 216.447H686.116C686.331 216.101 686.606 215.807 686.942 215.565C687.278 215.313 687.661 215.121 688.09 214.991C688.519 214.851 688.972 214.781 689.448 214.781V215.761C688.832 215.761 688.272 215.887 687.768 216.139C687.264 216.391 686.863 216.727 686.564 217.147C686.275 217.567 686.13 218.038 686.13 218.561V222.201H685.01ZM694.3 222.341C693.507 222.341 692.933 222.173 692.578 221.837C692.233 221.491 692.06 220.927 692.06 220.143V215.859H690.282V214.921H692.06V212.541H693.166V214.921H695.868V215.859H693.166V219.863C693.166 220.423 693.264 220.815 693.46 221.039C693.656 221.253 694.006 221.361 694.51 221.361C694.734 221.361 694.949 221.342 695.154 221.305C695.369 221.267 695.569 221.216 695.756 221.151L695.882 222.103C695.602 222.187 695.331 222.247 695.07 222.285C694.818 222.322 694.561 222.341 694.3 222.341ZM648.535 237.201L646.477 229.921H647.681L649.221 236.123H649.249L650.775 229.921H652.273L653.799 236.123H653.827L655.367 229.921H656.557L654.513 237.201H653.057L651.531 231.097H651.503L649.977 237.201H648.535ZM658.23 228.283V226.981H659.532V228.283H658.23ZM658.328 237.201V229.921H659.448V237.201H658.328ZM662.014 237.201V229.921H663.092V230.901H663.12C663.4 230.537 663.764 230.261 664.212 230.075C664.66 229.879 665.169 229.781 665.738 229.781C666.615 229.781 667.264 230.019 667.684 230.495C668.104 230.971 668.314 231.713 668.314 232.721V237.201H667.222V232.917C667.222 232.161 667.077 231.605 666.788 231.251C666.508 230.896 666.065 230.719 665.458 230.719C665.001 230.719 664.595 230.812 664.24 230.999C663.895 231.176 663.619 231.423 663.414 231.741C663.218 232.049 663.12 232.408 663.12 232.819V237.201H662.014ZM673.656 237.341C672.443 237.341 671.505 237.014 670.842 236.361C670.189 235.707 669.862 234.774 669.862 233.561C669.862 232.385 670.165 231.461 670.772 230.789C671.388 230.117 672.237 229.781 673.32 229.781C674.356 229.781 675.149 230.098 675.7 230.733C676.251 231.358 676.526 232.259 676.526 233.435C676.526 233.528 676.526 233.626 676.526 233.729C676.526 233.831 676.521 233.92 676.512 233.995H670.464V233.099H675.7L675.49 233.393C675.49 232.487 675.308 231.811 674.944 231.363C674.58 230.915 674.039 230.691 673.32 230.691C672.555 230.691 671.967 230.933 671.556 231.419C671.145 231.895 670.94 232.576 670.94 233.463V233.743C670.94 234.629 671.164 235.297 671.612 235.745C672.069 236.183 672.737 236.403 673.614 236.403C674.015 236.403 674.431 236.361 674.86 236.277C675.299 236.193 675.691 236.081 676.036 235.941L676.204 236.837C675.849 236.995 675.448 237.117 675 237.201C674.552 237.294 674.104 237.341 673.656 237.341Z" fill="black"/>
<path d="M26 156V167" stroke="black"/>
<path d="M26 178V189" stroke="black"/>
<path d="M26 200V211" stroke="black"/>
<path d="M26.5 244V255" stroke="black"/>
<path d="M26.5 266V277" stroke="black"/>
<path d="M120.5 155V166" stroke="black"/>
<path d="M120.5 177V188" stroke="black"/>
<path d="M120.5 199V210" stroke="black"/>
<path d="M121 243V254" stroke="black"/>
<path d="M121 265V276" stroke="black"/>
<path d="M210.5 155V166" stroke="black"/>
<path d="M210.5 177V188" stroke="black"/>
<path d="M210.5 199V210" stroke="black"/>
<path d="M211 243V254" stroke="black"/>
<path d="M211 265V276" stroke="black"/>
<path d="M301.5 155V166" stroke="black"/>
<path d="M301.5 177V188" stroke="black"/>
<path d="M301.5 199V210" stroke="black"/>
<path d="M302 243V254" stroke="black"/>
<path d="M302 265V276" stroke="black"/>
<path d="M395.5 155V166" stroke="black"/>
<path d="M395.5 177V188" stroke="black"/>
<path d="M395.5 199V210" stroke="black"/>
<path d="M396 243V254" stroke="black"/>
<path d="M396 265V276" stroke="black"/>
<path d="M487.5 155V166" stroke="black"/>
<path d="M487.5 177V188" stroke="black"/>
<path d="M487.5 199V210" stroke="black"/>
<path d="M488 243V254" stroke="black"/>
<path d="M488 265V276" stroke="black"/>
<path d="M578.5 155V166" stroke="black"/>
<path d="M578.5 177V188" stroke="black"/>
<path d="M578.5 199V210" stroke="black"/>
<path d="M579 243V254" stroke="black"/>
<path d="M579 265V276" stroke="black"/>
<path d="M669.5 155V166" stroke="black"/>
<path d="M669.5 177V188" stroke="black"/>
<path d="M669.5 199V210" stroke="black"/>
<path d="M670 243V254" stroke="black"/>
<path d="M670 265V276" stroke="black"/>
</svg>
